<?xml version="1.0" standalone="no"?>
<!DOCTYPE svg PUBLIC "-//W3C//DTD SVG 1.1//EN" "http://www.w3.org/Graphics/SVG/1.1/DTD/svg11.dtd" >
<svg xmlns="http://www.w3.org/2000/svg">
<metadata>
This is a custom SVG webfont generated by Font Squirrel.
Copyright   : Copyright 19901998 Bitstream Inc  All rights reserved
</metadata>
<defs>
<font id="GoudySansMdBTBoldItalic" horiz-adv-x="1139" >
<font-face units-per-em="2048" ascent="1556" descent="-492" />
<missing-glyph horiz-adv-x="569" />
<glyph unicode=" "  horiz-adv-x="569" />
<glyph unicode="&#x09;" horiz-adv-x="569" />
<glyph unicode="&#xa0;" horiz-adv-x="569" />
<glyph unicode="!" horiz-adv-x="694" d="M94 133q0 75 52 126.5t128 51.5q67 0 109.5 -41t42.5 -106q0 -74 -51 -126t-123 -52q-73 0 -115.5 40t-42.5 107zM193 467l108 924l334 22l-193 -901z" />
<glyph unicode="&#x22;" horiz-adv-x="678" d="M80 879v559h192v-559h-192zM406 879v559h192v-559h-192z" />
<glyph unicode="#" horiz-adv-x="1575" d="M45 406l76 200h282l86 242h-299l74 201h297l148 415h221l-146 -415h242l148 415h221l-148 -415h283l-74 -201h-280l-84 -242h290l-71 -200h-291l-148 -416h-221l148 416h-244l-149 -416h-220l146 416h-287zM621 604h251l86 244h-249z" />
<glyph unicode="$" d="M82 184q0 9 6 37q1 5 2 8l37 158q84 -79 177 -119.5t192 -40.5q88 0 141 41.5t53 108.5q0 41 -28.5 77.5t-137.5 112.5q-177 124 -231.5 200t-54.5 167q0 149 93.5 241.5t256.5 104.5l24 154h213l-24 -154q122 -24 178.5 -51.5t56.5 -63.5q0 -7 -2.5 -15.5t-7.5 -18.5 l-57 -140q-70 52 -141 79.5t-136 27.5q-82 0 -129 -34.5t-47 -92.5q0 -34 20 -62t78 -69l45 -31q188 -128 238 -195q34 -44 52 -98t18 -113q0 -146 -99.5 -251t-267.5 -132l-35 -225l-217 -26l41 254q-157 29 -232 69t-75 92z" />
<glyph unicode="%" horiz-adv-x="1624" d="M68 842q0 208 107 345.5t267 137.5q110 0 175 -82t65 -221q0 -222 -101 -364t-255 -142q-121 0 -189.5 86.5t-68.5 239.5zM262 815q0 -71 22.5 -106t67.5 -35q54 0 95.5 107.5t41.5 260.5q0 62 -19 93.5t-56 31.5q-60 0 -106 -103.5t-46 -248.5zM360 -25l727 1350h166 l-727 -1350h-166zM932 301q0 208 107.5 345.5t267.5 137.5q109 0 174 -82t65 -221q0 -225 -101 -364.5t-263 -139.5q-115 0 -182.5 87t-67.5 237zM1126 272q0 -69 21.5 -104t62.5 -35q58 0 100 106t42 263q0 62 -19.5 94.5t-56.5 32.5q-60 0 -105 -103.5t-45 -253.5z" />
<glyph unicode="&#x26;" horiz-adv-x="1800" d="M90 467q0 137 81 246.5t226 167.5q-38 47 -56.5 96.5t-18.5 103.5q0 153 144 253t372 100q158 0 267 -40.5t109 -93.5q0 -7 -3 -18t-9 -25l-76 -161q-53 47 -118.5 71.5t-139.5 24.5q-108 0 -176.5 -51.5t-68.5 -130.5q0 -45 27 -85.5t87 -84.5q-142 -53 -220.5 -145.5 t-78.5 -207.5q0 -127 101.5 -201.5t277.5 -74.5q182 0 306 86.5t124 204.5q0 54 -34 87.5t-89 33.5q-58 0 -91.5 -37.5t-33.5 -102.5q0 -17 3.5 -32t9.5 -29q-12 -1 -23.5 -1.5t-23.5 -0.5q-89 0 -141 44.5t-52 119.5q0 109 97.5 176t258.5 67q63 0 180 -10t171 -10 q91 0 151.5 23t102.5 73l22 -149q3 -16 4.5 -28.5t1.5 -23.5q0 -54 -43 -85t-119 -31q-22 0 -50.5 4t-67.5 12q16 -27 24 -59.5t8 -73.5q0 -207 -209.5 -346t-533.5 -139q-312 0 -496 131.5t-184 351.5z" />
<glyph unicode="'" horiz-adv-x="352" d="M80 879v559h192v-559h-192z" />
<glyph unicode="(" horiz-adv-x="795" d="M115 330q0 264 76 488.5t225 398.5q85 98 174.5 157.5t150.5 59.5q23 -1 37.5 -7.5t26.5 -21.5l78 -96q-220 -106 -342.5 -376.5t-122.5 -651.5q0 -187 52.5 -314t168.5 -219l-109 -113q-7 -7 -18.5 -11.5t-24.5 -4.5q-25 0 -59.5 18t-69.5 50q-120 109 -181.5 272 t-61.5 371z" />
<glyph unicode=")" horiz-adv-x="795" d="M-125 -256q219 106 341 376t122 652q0 189 -53 315.5t-168 217.5l108 112q8 8 19.5 12.5t23.5 4.5q26 0 60 -18t69 -50q121 -110 183.5 -273t62.5 -370q0 -263 -76.5 -488t-226.5 -399q-85 -98 -175 -157.5t-151 -59.5q-21 0 -35.5 6.5t-27.5 22.5z" />
<glyph unicode="*" horiz-adv-x="1024" d="M156 1094q0 8 4 20t12 27l64 121q18 -17 46.5 -31.5t73.5 -30.5l127 -47l-4 117v28q0 69 20 96t68 27h181q-24 -34 -40 -70t-22 -71l-20 -125l125 59q33 16 54.5 22.5t39.5 6.5q22 0 35 -10.5t20 -34.5l39 -135q-41 -2 -67.5 -6.5t-47.5 -12.5l-145 -51l80 -110 q19 -28 24.5 -40t5.5 -22q0 -20 -9.5 -33.5t-37.5 -27.5l-143 -82q-5 29 -13.5 56t-21.5 50l-63 123l-92 -129q-35 -49 -58 -67.5t-47 -18.5q-10 0 -20.5 4.5t-28.5 16.5l-133 86q42 18 80 45t71 63l80 86l-139 29q-51 11 -74.5 28t-23.5 44z" />
<glyph unicode="+" horiz-adv-x="1706" d="M254 512v199h498v510h202v-510h498v-199h-498v-512h-202v512h-498z" />
<glyph unicode="," horiz-adv-x="569" d="M-33 -205q73 29 126.5 77t82.5 112q-47 18 -71.5 53.5t-24.5 85.5q0 74 50.5 125t125.5 51q70 0 114 -45.5t44 -118.5q0 -126 -122 -232t-315 -141z" />
<glyph unicode="-" horiz-adv-x="610" d="M43 422l35 225h422l-35 -225h-422z" />
<glyph unicode="." horiz-adv-x="569" d="M74 133q0 75 52 126.5t128 51.5q67 0 109.5 -41t42.5 -106q0 -74 -50.5 -126t-122.5 -52t-115.5 40t-43.5 107z" />
<glyph unicode="/" horiz-adv-x="569" d="M-115 -190l525 1626h217l-531 -1626h-211z" />
<glyph unicode="0" d="M78 494q0 188 51.5 351t146.5 279q83 101 181.5 152t210.5 51q187 0 289 -129.5t102 -370.5q0 -185 -51 -355t-144 -296q-70 -95 -168.5 -148t-206.5 -53q-192 0 -301.5 138t-109.5 381zM367 444q0 -111 34 -169t101 -58q59 0 104.5 46t79.5 140q39 109 60.5 230.5 t21.5 236.5q0 110 -31 163.5t-94 53.5q-51 0 -93.5 -35.5t-78.5 -109.5q-48 -97 -76 -231t-28 -267z" />
<glyph unicode="1" d="M262 0q34 34 55.5 86t34.5 135l139 884q2 11 4 26q7 45 7 55q0 27 -4 48.5t-13 41.5l334 53l-198 -1247q-8 -47 -29.5 -64.5t-73.5 -17.5h-256z" />
<glyph unicode="2" d="M25 0l28 172q307 247 474 445.5t167 314.5q0 68 -43 105.5t-121 37.5q-69 0 -140 -32t-134 -93l-86 150q-1 2 -3 5q-13 23 -13 34q0 60 129.5 124t283.5 64q190 0 306 -104.5t116 -274.5q0 -155 -123.5 -321t-410.5 -391q75 10 253 12.5t263 36.5l-72 -207 q-15 -44 -51.5 -61t-122.5 -17q-28 0 -160 5t-235 5q-56 0 -129 -2.5t-176 -7.5z" />
<glyph unicode="3" d="M63 303q73 -35 149 -53.5t153 -18.5q124 0 197 55t73 148q0 90 -81 167.5t-230 129.5q170 41 258 102.5t88 139.5q0 50 -33 78t-90 28q-67 0 -139 -27.5t-140 -78.5l-75 159q-6 10 -8.5 20.5t-2.5 23.5q0 48 129.5 97.5t284.5 49.5q168 0 271.5 -80t103.5 -207 q0 -100 -60 -181.5t-163 -121.5q95 -48 144.5 -126.5t49.5 -182.5q0 -192 -155 -319.5t-394 -127.5q-162 0 -238.5 34t-80.5 107z" />
<glyph unicode="4" d="M4 274l35 218l733 829h234l-131 -831q43 1 81 8.5t72 21.5l-59 -198q-7 -24 -25 -36t-49 -12h-55l-52 -326q-6 -45 -22 -60.5t-61 -26.5l-267 -66q19 34 34.5 82t27.5 111l55 286h-551zM307 487h316l118 545z" />
<glyph unicode="5" d="M66 121q0 8 1.5 20.5t4.5 26.5l26 156q70 -46 143.5 -69.5t145.5 -23.5q110 0 181 62t71 158q0 115 -108.5 198.5t-299.5 114.5l179 541q49 -13 106 -19t123 -6q118 0 223 13t203 40l-61 -176q-22 -62 -80.5 -85t-225.5 -23q-26 0 -89 3q-9 0 -13 1l-47 -152 q184 -39 290.5 -155t106.5 -277q0 -212 -154.5 -352t-392.5 -140q-151 0 -242 40t-91 104z" />
<glyph unicode="6" d="M117 418q0 188 85 362.5t255 333.5q100 94 210 152.5t177 58.5q15 0 26 -1.5t23 -4.5l235 -57q-161 -75 -296 -177t-244 -231q35 6 54 8t34 2q138 0 223.5 -99.5t85.5 -262.5q0 -219 -137.5 -372t-333.5 -153q-180 0 -288.5 120t-108.5 321zM391 395q0 -87 35.5 -137.5 t95.5 -50.5q77 0 133 87t56 214q0 87 -32.5 133.5t-92.5 46.5q-81 0 -138 -84t-57 -209z" />
<glyph unicode="7" d="M221 1020l60 215q10 40 30.5 55t79.5 15h768q-328 -459 -462 -743.5t-134 -504.5q0 -37 3 -76.5t9 -80.5l-247 63q-43 11 -63.5 43t-20.5 86q0 165 115.5 410.5t336.5 550.5h-196q-121 0 -181 -8t-98 -25z" />
<glyph unicode="8" d="M68 352q0 123 62 219t179 152q-58 51 -86 107t-28 122q0 159 135 266t342 107q168 0 272.5 -86t104.5 -223q0 -93 -52 -170t-153 -135q82 -51 126 -125.5t44 -165.5t-42.5 -174t-123.5 -152q-69 -58 -156.5 -88.5t-185.5 -30.5q-196 0 -317 105t-121 272zM348 373 q0 -74 48 -121t122 -47q91 0 153 57t62 139q0 71 -49 120.5t-147 78.5q-92 -37 -140.5 -95t-48.5 -132zM465 963q0 -46 35.5 -85t99.5 -63q83 24 129.5 70.5t46.5 103.5q0 56 -39 90.5t-104 34.5q-67 0 -117.5 -45.5t-50.5 -105.5z" />
<glyph unicode="9" d="M47 215q41 -23 93.5 -34t119.5 -11q124 0 221 78t140 213q-34 -19 -67.5 -28t-72.5 -9q-145 0 -230 100.5t-85 274.5q0 232 135.5 377t351.5 145q161 0 261 -118.5t100 -311.5q0 -218 -75 -415.5t-212 -342.5q-93 -97 -214.5 -150t-254.5 -53q-111 0 -151.5 22.5 t-45.5 84.5zM432 795q0 -89 32 -134t95 -45q82 0 133 84t51 222q0 86 -31.5 132t-90.5 46q-80 0 -134.5 -87t-54.5 -218z" />
<glyph unicode=":" horiz-adv-x="608" d="M74 133q0 75 52 126.5t128 51.5q67 0 109.5 -41t42.5 -106q0 -74 -50.5 -126t-122.5 -52t-115.5 40t-43.5 107zM178 815q0 75 52 126.5t128 51.5q67 0 109.5 -41t42.5 -106q0 -76 -51.5 -127t-128.5 -51q-68 0 -110 40.5t-42 106.5z" />
<glyph unicode=";" horiz-adv-x="608" d="M-33 -205q73 29 126.5 77t82.5 112q-47 18 -71.5 53.5t-24.5 85.5q0 74 50.5 125t125.5 51q70 0 114 -45.5t44 -118.5q0 -126 -122 -232t-315 -141zM184 815q0 75 52.5 126.5t128.5 51.5q67 0 109 -41t42 -106q0 -77 -50.5 -127.5t-127.5 -50.5q-68 0 -111 41t-43 106z " />
<glyph unicode="&#x3c;" horiz-adv-x="1706" d="M264 512v199l1178 483v-219l-893 -365l893 -364v-219z" />
<glyph unicode="=" horiz-adv-x="1706" d="M254 297v199h1198v-199h-1198zM254 727v199h1198v-199h-1198z" />
<glyph unicode="&#x3e;" horiz-adv-x="1706" d="M264 27v219l895 364l-895 365v219l1178 -483v-199z" />
<glyph unicode="?" horiz-adv-x="924" d="M147 133q0 75 51.5 126.5t127.5 51.5q67 0 110 -41.5t43 -105.5q0 -74 -51 -126t-123 -52t-115 40t-43 107zM180 1278q0 61 96.5 107.5t237.5 46.5q158 0 249 -74t91 -201q0 -28 -6.5 -57t-20.5 -62q-39 -88 -153 -198q-36 -35 -51 -52q-78 -86 -111 -161.5t-33 -165.5 v-17l-174 68q-32 12 -45.5 31t-13.5 53q0 48 19 99t59 106q36 49 128.5 142t92.5 142q0 48 -26.5 75.5t-72.5 27.5q-48 0 -92 -27t-71 -74l-84 138q-10 14 -14.5 27t-4.5 26z" />
<glyph unicode="@" horiz-adv-x="2048" d="M90 520q0 167 52.5 318.5t154.5 275.5q148 181 356 274t463 93q169 0 317.5 -45.5t258.5 -128.5q135 -105 201.5 -239.5t66.5 -303.5q0 -165 -65.5 -304.5t-188.5 -238.5q-70 -56 -152.5 -85.5t-171.5 -29.5q-106 0 -159.5 42t-55.5 124q-55 -84 -127 -123.5t-170 -39.5 q-158 0 -240.5 86t-82.5 254q0 239 139.5 401t343.5 162q80 0 139 -33t97 -98l53 98h178l-147 -598q-3 -11 -5 -22.5t-2 -18.5q0 -35 24 -52.5t71 -17.5q39 0 81.5 20t79.5 56q86 80 130.5 187t44.5 235q0 240 -185.5 394.5t-478.5 154.5q-141 0 -262.5 -34t-220.5 -101 q-170 -114 -261.5 -285t-91.5 -375q0 -307 207 -490.5t553 -183.5q162 0 316.5 49t287.5 142l82 -117q-153 -115 -324.5 -173t-357.5 -58q-192 0 -353 48.5t-286 143.5q-155 121 -232 279t-77 358zM760 444q0 -92 40.5 -140t117.5 -48q83 0 151.5 63t93.5 164l54 217 q-13 81 -57.5 123.5t-117.5 42.5q-114 0 -198 -124t-84 -298z" />
<glyph unicode="A" horiz-adv-x="1481" d="M-135 162q94 22 181.5 105t186.5 247q28 46 116.5 218.5t164.5 273.5q49 66 92.5 110t83.5 68q-61 -9 -90 -12t-49 -3q-148 0 -194.5 26t-61.5 97l-35 154q80 -25 229.5 -38t348.5 -13h299q60 0 86 -19.5t41 -75.5q17 -58 28 -234t11 -413q0 -115 -3.5 -270t-3.5 -195 q0 -68 5.5 -111.5t17.5 -76.5h-422q46 62 72.5 183.5t35.5 322.5q-87 2 -135.5 3t-89.5 1q-39 0 -87 -1l-144 -3q-141 -263 -246 -384.5t-192 -121.5q-18 0 -34.5 6t-35.5 21zM652 733q31 -1 67.5 -1.5t111.5 -0.5q74 0 110.5 0.5t67.5 1.5q3 58 4 87.5t1 53.5v41 q0 158 -11 197t-40 39q-51 0 -138.5 -115.5t-172.5 -302.5z" />
<glyph unicode="B" horiz-adv-x="1247" d="M33 0q31 43 52.5 100.5t31.5 122.5l131 834q3 21 4.5 35t1.5 24q0 42 -28.5 65t-80.5 23q-17 0 -55 -7q-4 -1 -6 -1l70 145q26 53 56.5 74t78.5 21q50 0 95 -24.5t85 -72.5q64 48 141.5 72.5t163.5 24.5q180 0 283.5 -89.5t103.5 -244.5q0 -116 -71.5 -204.5 t-192.5 -121.5q112 -29 171.5 -102.5t59.5 -181.5q0 -115 -58.5 -217.5t-162.5 -170.5q-84 -54 -192 -79t-258 -25q-39 0 -141.5 4t-165.5 4q-32 0 -61 -2t-56 -6zM422 242h65q167 0 257 65.5t90 186.5q0 82 -60 126t-172 44q-20 0 -46.5 -2.5t-68.5 -8.5zM518 850h23 q141 0 232 67.5t91 167.5q0 57 -33 88t-94 31q-43 0 -88 -20t-86 -58z" />
<glyph unicode="C" horiz-adv-x="1370" d="M82 629q0 359 213 580t559 221q210 0 338.5 -92t128.5 -238q0 -122 -92 -204.5t-228 -82.5q-67 0 -101 26t-34 79q0 11 3.5 26t9.5 31l20 67q13 -8 27.5 -12t36.5 -4q39 0 64.5 20.5t25.5 53.5q0 42 -50 66t-139 24q-205 0 -339 -148t-134 -376q0 -199 104.5 -311.5 t286.5 -112.5q99 0 211.5 38t233.5 111l-27 -186q-6 -41 -18.5 -67t-32.5 -44q-56 -47 -177.5 -79.5t-252.5 -32.5q-296 0 -466.5 172.5t-170.5 474.5z" />
<glyph unicode="D" horiz-adv-x="1473" d="M35 0q27 27 49 90.5t37 157.5l127 811q3 22 4.5 37.5t1.5 23.5q0 51 -23.5 70.5t-83.5 19.5q-10 0 -27 -2.5t-36 -7.5l90 184q12 25 41 37.5t78 12.5q62 0 108.5 -24.5t73.5 -72.5q73 48 159.5 72.5t180.5 24.5q267 0 422.5 -159.5t155.5 -432.5q0 -141 -37 -271 t-109 -241q-109 -172 -271 -251t-407 -79q-64 0 -186.5 2t-179.5 2q-70 0 -104.5 -1t-63.5 -3zM424 250q42 -3 75 -4.5t60 -1.5q247 0 384.5 158.5t137.5 443.5q0 164 -73 253t-209 89q-69 0 -128.5 -21.5t-113.5 -66.5z" />
<glyph unicode="E" horiz-adv-x="995" d="M13 0q28 35 48 90t33 137l162 1016q2 17 3 33.5t1 34.5q0 33 -6 57.5t-18 44.5q18 0 55 -1q148 -3 203 -3q59 0 148.5 1t119.5 1q72 0 111 -2.5t58 -7.5q29 -8 40.5 -26t11.5 -54q0 -22 -0.5 -31t-1.5 -14l-18 -148q-50 20 -118.5 29.5t-154.5 9.5q-40 0 -133 -7 q-8 -1 -12 -1l-45 -285h166q50 0 90 7t73 20l-49 -305q-27 15 -58.5 22t-74.5 7h-188l-57 -373q28 -3 57 -4.5t76 -1.5q133 0 212.5 8t135.5 27l-58 -181q-18 -59 -49 -79.5t-112 -20.5q-15 0 -103.5 3t-163.5 3q-85 0 -181.5 -1.5t-202.5 -4.5z" />
<glyph unicode="F" horiz-adv-x="944" d="M12 0q29 35 49 90t33 137l162 1016q2 17 3 33.5t1 34.5q0 33 -6 57.5t-18 44.5q18 0 56 -1q151 -3 206 -3q59 0 148.5 1t119.5 1q72 0 111 -2.5t59 -7.5q26 -7 37.5 -25t11.5 -55v-33v-12l-18 -148q-50 20 -119.5 29.5t-161.5 9.5q-43 0 -135 -7l-6 -1l-45 -285h162 q50 0 90 7t73 20l-47 -305q-26 14 -59.5 21.5t-75.5 7.5h-184l-66 -421q-3 -16 -4.5 -41.5t-1.5 -56.5t5 -57.5t16 -48.5h-396z" />
<glyph unicode="G" horiz-adv-x="1452" d="M86 621q0 159 51 299.5t154 263.5q95 114 245.5 178.5t321.5 64.5q221 0 350 -89t129 -240q0 -121 -87 -198t-224 -77q-72 0 -108.5 23t-36.5 67q0 19 11 52q1 3 1 4l31 79q16 -8 34 -13t35 -5q38 0 64 20t26 50q0 45 -55.5 71.5t-150.5 26.5q-223 0 -358.5 -151.5 t-135.5 -403.5q0 -186 100.5 -295.5t270.5 -109.5q58 0 111.5 16t99.5 47l32 190q1 4 1.5 11t0.5 20q0 30 -5.5 53t-16.5 43h358q-22 -26 -38 -71.5t-27 -111.5l-90 -533q-19 -111 -54.5 -154t-109.5 -53l-236 -33q42 46 74.5 121t52.5 170l17 78q-55 -24 -115 -35.5 t-125 -11.5q-268 0 -433 175.5t-165 461.5z" />
<glyph unicode="H" horiz-adv-x="1321" d="M10 0q30 33 50 90t36 158l146 916q7 44 10.5 80t3.5 63q0 34 -6 59.5t-19 46.5h400q-30 -33 -50.5 -91.5t-35.5 -156.5l-51 -317h190h188l50 316q7 41 10.5 77t3.5 66q0 32 -6 58t-19 48h400q-30 -33 -50.5 -91.5t-35.5 -156.5l-146 -916q-6 -43 -10 -78.5t-4 -51.5 q0 -44 6 -71t19 -48h-398q30 33 50.5 91.5t35.5 156.5l56 350h-58h-121h-131h-69l-56 -348q-8 -52 -12 -86t-4 -58q0 -29 6.5 -55.5t19.5 -50.5h-399z" />
<glyph unicode="I" horiz-adv-x="664" d="M23 0q29 33 49.5 90t36.5 158l145 915q7 44 10.5 80t3.5 64q0 34 -6 59.5t-18 46.5h397q-30 -33 -50.5 -91.5t-35.5 -156.5l-145 -915q-7 -46 -11 -81t-4 -50q0 -44 6 -71t19 -48h-397z" />
<glyph unicode="J" horiz-adv-x="674" d="M-164 -326q0 9 0.5 13.5t1.5 8.5l33 169q22 -29 45.5 -43.5t50.5 -14.5q46 0 70.5 40.5t42.5 162.5l190 1204q5 29 8 54t3 43q0 43 -6 66t-19 36h393q-27 -32 -47.5 -87.5t-32.5 -129.5l-188 -1198q-38 -241 -116.5 -340.5t-223.5 -99.5q-98 0 -151.5 30.5t-53.5 85.5z " />
<glyph unicode="K" horiz-adv-x="1249" d="M10 0q30 35 49 85.5t31 125.5l160 1006q3 18 4.5 38.5t1.5 57.5q0 34 -5 57.5t-15 42.5h395q-30 -34 -49.5 -85.5t-30.5 -121.5l-55 -338l534 475l36 35l58 56l82 -181q10 -22 13.5 -33.5t3.5 -21.5q0 -19 -13.5 -38.5t-44.5 -43.5l-487 -389l149 -190 q118 -150 210.5 -230t187.5 -117l-115 -147q-19 -23 -41 -33t-57 -10q-74 0 -188.5 107t-250.5 305l-120 176l-60 -373q-4 -27 -6 -53.5t-2 -50.5q0 -45 4.5 -68.5t13.5 -42.5h-393z" />
<glyph unicode="L" horiz-adv-x="965" d="M11 0q28 34 47 87t32 136l158 994q4 23 6 46t2 48q0 33 -5.5 59.5t-14.5 42.5h393q-30 -34 -50 -84.5t-30 -118.5l-152 -954q57 -8 98 -11t80 -3q96 0 174 10t134 29l-66 -203q-14 -46 -40.5 -62t-112.5 -16q-70 0 -190 3t-173 3q-107 0 -170 -1.5t-120 -4.5z" />
<glyph unicode="M" horiz-adv-x="1765" d="M-4 0q27 33 47.5 85t34.5 124l190 975q6 28 9.5 59.5t3.5 67.5q0 32 -6 56.5t-19 45.5h317l267 -993l583 993h324q-26 -30 -43.5 -83t-32.5 -152l-145 -973q-5 -36 -6.5 -56.5t-1.5 -37.5q0 -35 6 -62t18 -49h-389q28 35 46.5 81.5t29.5 106.5l133 734l-524 -922h-123 l-234 932l-112 -745q-6 -42 -8.5 -65t-2.5 -36q0 -24 6 -44.5t19 -41.5h-387z" />
<glyph unicode="N" horiz-adv-x="1540" d="M39 0q31 43 51.5 92.5t30.5 106.5l155 989q-27 56 -68 111.5t-95 113.5h333l613 -971l121 791q3 19 4.5 38.5t1.5 39.5q0 30 -6 55t-19 47h377q-29 -34 -49.5 -86t-30.5 -117l-194 -1210h-195l-563 872l-99 -660q-4 -30 -7 -61t-3 -57q0 -27 5 -50t16 -44h-379z" />
<glyph unicode="O" horiz-adv-x="1370" d="M80 578q0 173 48.5 330.5t137.5 275.5q97 127 219.5 189.5t276.5 62.5q256 0 393 -153t137 -437q0 -175 -51 -335.5t-147 -289.5q-90 -119 -216 -182.5t-274 -63.5q-251 0 -387.5 157t-136.5 446zM385 532q0 -152 57 -230.5t168 -78.5q86 0 151 46.5t118 146.5 q49 90 77.5 216.5t28.5 258.5q0 149 -59 224t-176 75q-75 0 -137 -41.5t-111 -124.5q-53 -92 -85 -225t-32 -267z" />
<glyph unicode="P" horiz-adv-x="1151" d="M29 0q29 33 50 89.5t34 135.5l131 838q3 18 4.5 33t1.5 24q0 40 -31 61t-88 21q-15 0 -27.5 -1.5t-25.5 -4.5l78 162q17 37 49 56.5t76 19.5q53 0 98 -24t84 -73q61 49 136.5 73t168.5 24q176 0 281.5 -104.5t105.5 -278.5q0 -123 -70 -232.5t-194 -179.5 q-69 -39 -160.5 -59.5t-200.5 -20.5h-43h-22l-59 -384q-3 -18 -5 -41t-2 -48q0 -29 4.5 -49t14.5 -37h-389zM498 784h30q149 0 242.5 74t93.5 189q0 64 -37.5 101.5t-103.5 37.5q-44 0 -87.5 -17t-82.5 -49z" />
<glyph unicode="Q" horiz-adv-x="1358" d="M23 164q0 10 0.5 19.5t3.5 23.5l22 112q50 -29 125 -46t160 -17q114 0 205.5 31.5t171.5 97.5q116 97 174.5 221.5t58.5 276.5q0 126 -65 203t-170 77q-117 0 -197 -82.5t-80 -203.5q0 -86 45 -135.5t123 -49.5q30 0 59 8.5t56 24.5l-35 -139q-17 -68 -57 -95.5 t-119 -27.5q-166 0 -269.5 113.5t-103.5 295.5q0 124 50 231.5t145 186.5q82 69 185 104.5t220 35.5q237 0 379.5 -154t142.5 -410q0 -222 -108 -403.5t-295 -272.5q192 -23 311 -128t119 -246q0 -54 -24.5 -89t-71.5 -49l-189 -55q10 24 14.5 44.5t4.5 41.5q0 141 -132 216 t-382 75h-189q-151 0 -219.5 39t-68.5 125z" />
<glyph unicode="R" horiz-adv-x="1243" d="M31 0q30 36 51 94t33 137l133 841q2 16 3 25t1 15q0 48 -27 70t-86 22q-12 0 -26 -2t-29 -6l72 150q19 44 51.5 64t85.5 20q55 0 101.5 -24t78.5 -69q61 47 130.5 70t152.5 23q173 0 275 -95t102 -256q0 -132 -76 -241.5t-209 -169.5q105 -225 197 -342.5t178 -137.5 l-84 -135q-22 -33 -49 -50t-60 -17q-98 0 -205 143t-252 471q-5 0 -18 -1t-20 -1q-10 0 -23 1l-36 3l-64 -405q-3 -23 -4.5 -45t-1.5 -46q0 -35 4 -60t14 -46h-393zM510 819q3 0 11 -1q29 -3 42 -3q117 0 192.5 71t75.5 177q0 62 -32 97.5t-88 35.5q-44 0 -83 -16t-69 -47z " />
<glyph unicode="S" horiz-adv-x="963" d="M16 174v172q80 -56 164.5 -86.5t161.5 -30.5q85 0 134.5 39t49.5 105q0 76 -122 227l-23 29l-12 14q-199 251 -199 399q0 166 127 277t317 111q146 0 219.5 -37t73.5 -111q0 -4 -1 -10t-1 -8l-20 -174q-55 50 -120 77t-132 27q-76 0 -122 -35t-46 -92q0 -40 30 -91 t125 -160l8 -10q206 -236 206 -403q0 -186 -143 -304.5t-367 -118.5q-154 0 -231 48.5t-77 145.5z" />
<glyph unicode="T" horiz-adv-x="1221" d="M51 1096l37 172q18 83 82 115t223 32q117 0 320 -11t291 -11q124 0 204 11.5t129 37.5l-57 -176q-24 -71 -77 -98t-169 -27q-32 0 -84 3t-125 9l-147 -944q-6 -41 -9 -73t-3 -54q0 -27 4 -46.5t14 -35.5h-393q28 26 50 83.5t34 133.5l149 944h-61q-159 0 -259 -16 t-153 -49z" />
<glyph unicode="U" horiz-adv-x="1493" d="M80 1188l74 158q20 42 56.5 59.5t104.5 17.5q108 0 175 -68.5t67 -178.5q0 -36 -4 -78.5t-12 -96.5l-80 -503q-6 -36 -9 -65t-3 -48q0 -73 39.5 -110t117.5 -37q142 0 240.5 79t120.5 213l108 684q5 30 7.5 58t2.5 53q0 29 -5.5 50t-18.5 38h393q-27 -30 -46 -81 t-30 -120l-129 -805q-5 -32 -7.5 -59t-2.5 -49q0 -56 23.5 -94t64.5 -49l-90 -119q-22 -30 -45.5 -42.5t-54.5 -12.5q-62 0 -110.5 46t-68.5 124q-69 -84 -171 -127t-228 -43q-197 0 -305.5 94.5t-108.5 267.5q0 40 5.5 94.5t17.5 128.5l76 476q3 20 4.5 35.5t1.5 25.5 q0 45 -27.5 68.5t-79.5 23.5q-17 0 -32.5 -2t-30.5 -6z" />
<glyph unicode="V" horiz-adv-x="1399" d="M6 1413h397q-6 -13 -9 -28.5t-3 -38.5t3.5 -46t10.5 -44l261 -814l448 811q19 36 29 67t10 56q0 11 -1.5 20t-4.5 17h412q-26 -24 -53.5 -61.5t-59.5 -91.5l-762 -1278h-137l-447 1241q-20 58 -44 107t-50 83z" />
<glyph unicode="W" horiz-adv-x="1907" d="M-2 1413h395q-5 -23 -7.5 -41t-2.5 -33q0 -28 4.5 -55t13.5 -55l256 -813l199 358l-141 465q-20 65 -40 106t-44 68h395q-6 -18 -9 -36.5t-3 -37.5q0 -23 3 -47t9 -47l207 -786l416 798q17 35 25.5 67.5t8.5 61.5q0 11 -0.5 17t-0.5 10h415q-24 -22 -55 -62.5t-60 -88.5 l-753 -1280h-146l-145 497l-281 -497h-141l-438 1271q-16 46 -35.5 86t-44.5 74z" />
<glyph unicode="X" horiz-adv-x="1253" d="M-116 247q19 -4 28 -5.5t16 -1.5q151 0 294 121t280 364q-92 289 -146.5 370t-130.5 81q-34 0 -54 -4.5t-38 -13.5l39 179q9 44 37 62t88 18q134 0 233.5 -106t165.5 -320q111 198 252.5 312t272.5 114q45 0 68.5 -17t23.5 -50v-13l-19 -161h-20q-113 0 -230 -112.5 t-241 -338.5l90 -213q68 -162 129.5 -229.5t136.5 -67.5h17l-86 -154q-20 -33 -41 -47t-52 -14q-113 0 -213.5 123.5t-169.5 349.5q-133 -210 -287 -341.5t-253 -131.5q-34 0 -55.5 13.5t-36.5 43.5z" />
<glyph unicode="Y" horiz-adv-x="1210" d="M25 1168l41 159q10 47 40 67.5t84 20.5q142 0 265.5 -120t206.5 -341q169 279 257.5 370t172.5 91h292q-288 -261 -450.5 -481t-188.5 -381l-57 -357q-3 -23 -4.5 -47.5t-1.5 -50.5q0 -29 5 -53t15 -45h-395q29 34 49.5 86t30.5 119l66 411q4 22 6 43.5t2 40.5 q0 68 -33.5 148t-99.5 170q-59 81 -118.5 120.5t-121.5 39.5q-20 0 -35.5 -2.5t-27.5 -7.5z" />
<glyph unicode="Z" horiz-adv-x="1257" d="M-10 -2q19 147 94.5 295t204.5 287q101 110 311 302.5t299 293.5q-28 -3 -57.5 -5t-57.5 -2q-34 0 -130 3.5t-158 3.5q-122 0 -213 -12.5t-136 -35.5l43 183q15 61 64 83.5t190 22.5q122 0 332 -13t299 -13q64 0 119 6.5t102 19.5q-16 -133 -109.5 -278.5t-303.5 -358.5 l-158 -156q-273 -266 -331 -376q17 1 34 1.5t45 0.5q56 0 189.5 -6t211.5 -6q100 0 166.5 8.5t106.5 25.5l-47 -149q-24 -76 -67.5 -105.5t-133.5 -29.5q-74 0 -288 17.5t-353 17.5q-74 0 -141.5 -6.5t-126.5 -18.5z" />
<glyph unicode="[" horiz-adv-x="795" d="M43 -375l283 1788h518l-23 -153h-229l-234 -1481h228l-25 -154h-518z" />
<glyph unicode="\" horiz-adv-x="569" d="M121 1436h203l143 -1626h-205z" />
<glyph unicode="]" horiz-adv-x="795" d="M-111 -375l25 154h227l236 1481h-230l25 153h518l-282 -1788h-519z" />
<glyph unicode="^" horiz-adv-x="2048" d="M416 899l481 561h252l481 -561h-235l-371 371l-373 -371h-235z" />
<glyph unicode="_" horiz-adv-x="1024" d="M0 -279h1024v-204h-1024v204z" />
<glyph unicode="`" horiz-adv-x="1024" d="M338 1485h221l186 -365h-118z" />
<glyph unicode="a" horiz-adv-x="1137" d="M39 365q0 116 32 219.5t95 189.5q79 109 186.5 170.5t218.5 61.5q69 0 121.5 -23t89.5 -70q17 37 40 54.5t55 17.5h180q-74 -158 -116 -337t-42 -333q0 -85 34.5 -125t106.5 -40h17q-12 -77 -58.5 -120.5t-115.5 -43.5q-71 0 -124 42t-79 117q-60 -80 -139.5 -121.5 t-171.5 -41.5q-148 0 -239 105t-91 278zM324 369q0 -76 26.5 -115t77.5 -39q36 0 73 26.5t70 75.5q42 64 71.5 165t29.5 182q0 48 -23 77t-61 29q-45 0 -89.5 -30t-82.5 -87q-44 -66 -68 -141.5t-24 -142.5z" />
<glyph unicode="b" horiz-adv-x="1102" d="M23 -2l206 1307q4 21 6.5 42.5t2.5 41.5q0 14 -2.5 32t-7.5 41l319 54l-94 -588q50 34 102.5 50.5t106.5 16.5q151 0 243 -107t92 -286q0 -146 -61 -275t-180 -235q-58 -51 -138 -80.5t-161 -29.5q-77 0 -178.5 35.5t-128.5 35.5q-29 0 -60 -13.5t-67 -41.5zM346 250 q24 -21 50 -31t57 -10q102 0 181 123t79 286q0 74 -28 113t-81 39q-80 0 -141.5 -85.5t-83.5 -229.5z" />
<glyph unicode="c" horiz-adv-x="965" d="M31 377q0 131 49 251t141 214q78 79 178.5 121.5t210.5 42.5q131 0 212 -66t81 -170q0 -97 -82.5 -171.5t-189.5 -74.5q-41 0 -58.5 14t-17.5 46v16l9 90q4 -1 8 -1.5t12 -0.5q37 0 61.5 21t24.5 53q0 26 -18.5 40.5t-49.5 14.5q-32 0 -67.5 -19t-69.5 -55 q-65 -68 -104 -165t-39 -191q0 -83 43.5 -128.5t121.5 -45.5t157 33.5t157 99.5l-25 -168q0 -2 -1 -6q-10 -64 -36 -90q-43 -46 -128 -76.5t-177 -30.5q-192 0 -297.5 105.5t-105.5 296.5z" />
<glyph unicode="d" horiz-adv-x="1157" d="M33 371q0 150 65 290t178 234q67 54 143 82.5t156 28.5q52 0 92.5 -12t69.5 -36l54 347q5 35 7.5 56t2.5 34q0 18 -2 35.5t-6 35.5l315 50l-168 -1061q-8 -51 -12 -88t-4 -60q0 -75 33 -114t96 -39h14l-23 -68q-15 -48 -52 -75t-89 -27q-73 0 -128.5 43t-82.5 120 q-61 -82 -139 -122.5t-174 -40.5q-158 0 -252 105t-94 282zM326 356q0 -70 25.5 -107.5t74.5 -37.5q51 0 97.5 43.5t82.5 124.5q31 73 49.5 153.5t18.5 139.5q0 50 -24.5 78t-67.5 28q-37 0 -77 -26t-73 -72q-50 -68 -78 -154.5t-28 -169.5z" />
<glyph unicode="e" horiz-adv-x="926" d="M37 397q0 149 69 285t191 227q65 50 144 76.5t161 26.5q114 0 186 -65.5t72 -168.5q0 -153 -148.5 -257.5t-392.5 -119.5q0 -84 45 -131t125 -47q68 0 140.5 30t144.5 87l-22 -133q-19 -114 -102 -170.5t-230 -56.5q-178 0 -280.5 111.5t-102.5 305.5zM330 557 q128 14 214.5 77t86.5 136q0 27 -17.5 45.5t-42.5 18.5q-71 0 -140 -77.5t-101 -199.5z" />
<glyph unicode="f" horiz-adv-x="666" d="M-143 -389q84 84 142.5 224.5t88.5 332.5l94 594h-32q-29 0 -50.5 -2t-38.5 -6l23 151q6 46 25 64t59 18h49l39 240q22 138 109 211t231 73q81 0 126.5 -25t45.5 -69q0 -10 -3.5 -23t-10.5 -32l-47 -109q-22 16 -43 23.5t-41 7.5q-40 0 -65.5 -31.5t-35.5 -93.5l-28 -172 q10 -1 20 -1.5t29 -0.5q27 0 47 2t37 6l-17 -119q-10 -68 -30.5 -90t-67.5 -22h-53l-88 -565q-47 -297 -114 -441.5t-159 -144.5h-241z" />
<glyph unicode="g" horiz-adv-x="1065" d="M-80 -119q0 98 72.5 164t200.5 82q-48 23 -72.5 55.5t-24.5 73.5q0 49 32 84t95 55q-56 30 -85 84.5t-29 128.5q0 170 121.5 286t304.5 116q60 0 115.5 -12t107.5 -35h182q36 0 65 4t54 12l-41 -137q-13 -45 -30 -59.5t-48 -14.5h-18l-78 6q7 -29 10.5 -54.5t3.5 -49.5 q0 -125 -79 -214.5t-218 -121.5q-33 -8 -91 -13q-105 -9 -105 -63q0 -65 180 -94q33 -6 48 -8q154 -26 217.5 -82.5t63.5 -163.5q0 -139 -137 -225t-364 -86q-220 0 -336.5 72.5t-116.5 209.5zM178 -115q0 -50 50.5 -76t148.5 -26q115 0 182.5 31.5t67.5 83.5q0 49 -50 72.5 t-157 23.5q-117 0 -179.5 -28t-62.5 -81zM365 580q0 -57 24.5 -89t67.5 -32q62 0 109.5 77.5t47.5 184.5q0 58 -22.5 88.5t-67.5 30.5q-62 0 -110.5 -78.5t-48.5 -181.5z" />
<glyph unicode="h" horiz-adv-x="1096" d="M18 0l207 1296q6 34 9.5 62.5t3.5 42.5q0 11 -3.5 26t-11.5 41l309 52l-94 -600q60 42 122.5 63t131.5 21q122 0 190 -57.5t68 -160.5q0 -20 -1.5 -37t-4.5 -33l-63 -409q-1 -2 -1 -6q-3 -30 -3 -41q0 -46 24.5 -68t75.5 -22q13 0 28.5 1.5t34.5 4.5l-49 -117 q-17 -39 -52 -59t-87 -20q-117 0 -187.5 65t-70.5 172q0 18 2 38t6 42l64 396q1 6 1.5 12.5t0.5 19.5q0 25 -16 39t-44 14q-82 0 -145 -55t-76 -141l-92 -582h-277z" />
<glyph unicode="i" horiz-adv-x="596" d="M72 242q0 22 3 50t9 64l70 449q3 23 4.5 41.5t1.5 36.5q0 22 -2 42t-6 38l321 49l-102 -654q-7 -41 -9 -57t-2 -27q0 -48 25 -74t72 -26q29 0 42.5 1t24.5 3l-57 -119q-22 -45 -52.5 -62t-88.5 -17q-118 0 -186 70t-68 192zM242 1300q0 69 50 116.5t124 47.5 q64 0 104.5 -38.5t40.5 -98.5q0 -68 -49 -116t-119 -48q-69 0 -110 37.5t-41 99.5z" />
<glyph unicode="j" horiz-adv-x="600" d="M-217 -293l2 146q20 -19 43 -28t49 -9q73 0 117.5 60.5t64.5 186.5l115 734q4 26 6 50.5t2 43.5q0 14 -2 29.5t-8 39.5l322 52l-152 -953q-37 -238 -136 -353.5t-265 -115.5q-84 0 -121 27t-37 86v4zM246 1300q0 69 50 116.5t124 47.5q64 0 104.5 -38.5t40.5 -98.5 q0 -68 -49 -116t-119 -48q-69 0 -110 37.5t-41 99.5z" />
<glyph unicode="k" horiz-adv-x="1034" d="M29 0l207 1300q4 26 6 48.5t2 40.5q0 14 -2.5 32t-7.5 41l311 51l-135 -856l311 265q47 40 81.5 58.5t61.5 18.5q33 0 52.5 -21.5t37.5 -80.5l37 -121h-6q-27 0 -62 -13.5t-77 -39.5l-230 -150q99 -209 191 -316t188 -126l-153 -121q-20 -14 -38.5 -21t-37.5 -7 q-83 0 -179 140t-169 376l-37 -25l-74 -473h-278z" />
<glyph unicode="l" horiz-adv-x="600" d="M70 221q0 25 3.5 59.5t14.5 110.5l141 901q6 37 9.5 63t3.5 40q0 15 -2 33t-7 38l320 50l-180 -1133q-6 -36 -9.5 -63.5t-3.5 -45.5q0 -51 24 -76.5t71 -25.5q10 0 25.5 1.5t37.5 4.5l-51 -121q-18 -42 -49.5 -59.5t-91.5 -17.5q-125 0 -190.5 61.5t-65.5 179.5z" />
<glyph unicode="m" horiz-adv-x="1612" d="M5 813l54 123q15 33 47 50.5t80 17.5q70 0 121.5 -31t83.5 -92q55 58 132 90.5t163 32.5q78 0 133 -30.5t88 -92.5q59 60 135 91.5t164 31.5q120 0 188 -60t68 -166q0 -23 -2.5 -50t-7.5 -56l-53 -340q-2 -11 -3 -24t-1 -34q0 -48 24 -75t66 -27q13 0 31 2.5t40 7.5 l-51 -116q-18 -42 -51.5 -62t-83.5 -20q-112 0 -183 69.5t-71 179.5q0 22 3 52.5t9 68.5l54 339q1 5 1.5 11.5t0.5 22.5q0 23 -15 35t-43 12q-75 0 -129.5 -57t-70.5 -156l-88 -561h-273l109 689q1 8 1.5 15.5t0.5 18.5q0 27 -14 39t-46 12q-77 0 -132 -61t-72 -168 l-86 -545h-273l105 672q4 21 6 37.5t2 27.5q0 39 -27.5 60.5t-77.5 21.5q-24 0 -35 -1.5t-21 -4.5z" />
<glyph unicode="n" horiz-adv-x="1130" d="M1 815l65 133q11 26 50 43t89 17q68 0 115.5 -31t76.5 -94q68 62 150 93.5t174 31.5q123 0 192.5 -57.5t69.5 -159.5q0 -27 -7 -86l-1 -7l-62 -391v-6q-4 -31 -4 -41q0 -45 25.5 -67.5t77.5 -22.5q13 0 28.5 1.5t34.5 4.5l-55 -127q-16 -36 -48.5 -54t-82.5 -18 q-120 0 -190 66t-70 178q0 19 1.5 37.5t4.5 38.5l63 395q1 3 1.5 9.5t0.5 23.5q0 25 -17 39t-48 14q-76 0 -139 -56t-76 -140l-92 -582h-277l109 682q2 14 3 25t1 20q0 49 -26 73.5t-79 24.5q-11 0 -25.5 -2.5t-32.5 -7.5z" />
<glyph unicode="o" horiz-adv-x="1083" d="M37 410q0 125 43 239t121 199q75 81 170.5 121.5t214.5 40.5q183 0 288 -114t105 -314q0 -266 -153.5 -436.5t-393.5 -170.5q-177 0 -286 119.5t-109 315.5zM322 373q0 -81 36 -126.5t101 -45.5q98 0 167.5 118t69.5 291q0 85 -34.5 130.5t-98.5 45.5 q-100 0 -170.5 -119.5t-70.5 -293.5z" />
<glyph unicode="p" horiz-adv-x="1130" d="M-61 -389q33 38 52.5 87t35.5 150l133 834q2 13 3 25.5t1 29.5q0 42 -27.5 65t-77.5 23q-11 0 -25.5 -2.5t-32.5 -7.5l67 137q14 27 46.5 41.5t80.5 14.5q70 0 123.5 -36.5t74.5 -99.5q67 69 140 102.5t155 33.5q161 0 252.5 -102t91.5 -283q0 -104 -29 -205.5 t-83 -188.5q-78 -124 -184 -188t-232 -64q-52 0 -95 16t-75 46l-31 -195q-8 -58 -11 -88t-3 -51q0 -25 4.5 -49t13.5 -45h-368zM385 315q0 -50 28 -79t76 -29q90 0 169 125t79 282q0 81 -28.5 122.5t-83.5 41.5q-100 0 -170 -132.5t-70 -330.5z" />
<glyph unicode="q" horiz-adv-x="1094" d="M37 379q0 134 47.5 255.5t136.5 215.5q71 75 162.5 114.5t196.5 39.5q76 0 176.5 -29t126.5 -29q30 0 58 11.5t60 37.5l-180 -1135q-5 -29 -7.5 -60t-2.5 -64q0 -22 2.5 -49t7.5 -55l-319 -46l78 490q-48 -43 -102 -64.5t-116 -21.5q-144 0 -234.5 107.5t-90.5 281.5z M315 356q0 -75 27.5 -114t81.5 -39q82 0 145 98t90 272l27 172q-21 17 -49.5 26t-58.5 9q-42 0 -81 -21.5t-71 -62.5q-49 -64 -80 -158.5t-31 -181.5z" />
<glyph unicode="r" horiz-adv-x="795" d="M33 0l127 809q2 12 3 26.5t1 43.5q0 21 -2 43.5t-6 44.5l278 39l-31 -187q53 92 118 139.5t141 47.5q46 0 70 -21.5t24 -62.5q0 -11 -0.5 -15.5t-1.5 -8.5l-25 -163q-29 15 -58 22t-59 7q-96 0 -149 -63t-76 -207l-78 -494h-276z" />
<glyph unicode="s" horiz-adv-x="838" d="M-8 127q0 14 1.5 29.5t4.5 31.5l18 113q53 -48 123 -75t142 -27q55 0 87.5 24t32.5 64q0 49 -102 142l-9 8q-114 103 -146.5 159.5t-32.5 122.5q0 125 104 205t270 80q126 0 207.5 -39t81.5 -97q0 -12 -3 -27t-9 -30l-45 -117q-51 48 -113 74.5t-125 26.5 q-44 0 -67 -16.5t-23 -47.5q0 -35 94 -117l23 -20l7 -6q187 -160 187 -285q0 -142 -118.5 -230.5t-313.5 -88.5q-132 0 -204 37.5t-72 105.5z" />
<glyph unicode="t" horiz-adv-x="698" d="M68 748l20 131q8 52 37 79t78 27h33l12 80q2 20 3 31t1 20q0 26 -4 55t-12 62l315 51l-47 -299h43q25 0 52.5 5t53.5 13l-41 -155q-12 -43 -39 -63.5t-71 -20.5h-33l-63 -401q-3 -18 -5 -34t-2 -28q0 -57 26 -82.5t83 -25.5q21 0 44.5 5t53.5 17l-20 -125 q-11 -64 -51 -87t-140 -23q-142 0 -211 61.5t-69 189.5q0 32 4.5 79t13.5 107l55 347q-32 0 -62.5 -4t-57.5 -12z" />
<glyph unicode="u" horiz-adv-x="1135" d="M41 811l57 129q16 34 41.5 49t69.5 15q101 0 162 -66.5t61 -175.5q0 -20 -3.5 -54.5t-10.5 -80.5l-51 -332q-1 -2 -1 -6q-3 -26 -4 -37q0 -30 14.5 -43.5t45.5 -13.5q98 0 156 73.5t84 233.5l47 297q3 21 4.5 42t1.5 40q0 13 -2 30.5t-6 44.5l311 48l-103 -650 q-5 -34 -7.5 -54.5t-2.5 -35.5q0 -45 24 -69.5t66 -24.5q19 0 36.5 2t35.5 6l-45 -110q-20 -45 -55.5 -64.5t-98.5 -19.5q-72 0 -125 30.5t-84 89.5q-57 -57 -140 -88.5t-177 -31.5q-128 0 -193 58t-65 173q0 20 3 48.5t11 88.5l51 327q3 19 4 27.5t1 14.5q0 46 -23.5 68 t-73.5 22h-16z" />
<glyph unicode="v" horiz-adv-x="1073" d="M-2 791l59 127q18 37 50.5 56t80.5 19q127 0 190.5 -68t63.5 -204q0 -79 -26.5 -217.5t-26.5 -196.5q0 -47 19 -71.5t55 -24.5q34 0 69.5 30t63.5 83q51 96 78.5 212t27.5 236q0 70 -9 123t-27 90h217q57 0 79.5 -41t22.5 -158q0 -181 -58.5 -350t-158.5 -278 q-80 -88 -175.5 -134.5t-197.5 -46.5q-133 0 -216 81t-83 210q0 100 35 247t35 194q0 44 -25.5 67t-74.5 23q-11 0 -43 -5q-15 -2 -25 -3z" />
<glyph unicode="w" horiz-adv-x="1597" d="M4 791l64 137q15 33 46 49t81 16q124 0 194 -64t70 -177q0 -34 -6.5 -77t-18.5 -93l-31 -131q-12 -52 -17 -84.5t-5 -55.5q0 -57 17 -84.5t53 -27.5q67 0 126 113.5t91 310.5l18 118q13 78 19 136t8 108h299q-18 -66 -30.5 -122.5t-20.5 -106.5l-50 -292 q-9 -55 -14.5 -101t-5.5 -66q0 -49 17.5 -73.5t52.5 -24.5q39 0 78 34.5t75 102.5q54 103 85.5 229t31.5 238q0 60 -8 105.5t-23 76.5h217q55 0 75.5 -33t20.5 -133q0 -176 -46.5 -332.5t-137.5 -285.5q-74 -106 -176 -162.5t-219 -56.5q-93 0 -152.5 37.5t-91.5 115.5 q-64 -75 -145 -114t-170 -39q-135 0 -211 71t-76 197q0 33 6.5 76t20.5 102l39 158q9 40 14.5 69t5.5 41q0 54 -27.5 78.5t-89.5 24.5q-12 0 -46 -7q-5 -1 -7 -1z" />
<glyph unicode="x" horiz-adv-x="1110" d="M-45 141q99 17 201 108t235 283q-58 129 -120.5 194t-129.5 65q-7 0 -18 -2t-20 -4l34 130q12 45 40.5 65.5t76.5 20.5q92 0 173 -74t144 -216q86 137 187.5 213.5t195.5 76.5q46 0 68.5 -20t26.5 -66l8 -149q-13 3 -23.5 4.5t-19.5 1.5q-68 0 -148.5 -63t-179.5 -193 q51 -166 111.5 -241.5t140.5 -75.5q10 0 22 1.5t25 4.5l-35 -133q-12 -45 -43.5 -66.5t-83.5 -21.5q-106 0 -185.5 88.5t-131.5 263.5q-92 -167 -185 -259.5t-165 -92.5q-18 0 -37 9.5t-37 26.5z" />
<glyph unicode="y" horiz-adv-x="1026" d="M-100 -395q189 192 291 347.5t102 252.5q0 23 -7 61t-24 109q-21 86 -56 170.5t-79 154.5q-32 51 -70 78.5t-83 33.5l102 130q18 25 37.5 36t42.5 11q103 0 195 -164t141 -442l104 238q47 106 70.5 193t23.5 155v16h311q-54 -216 -188.5 -490.5t-323.5 -553.5 q-115 -174 -156.5 -228.5t-68.5 -77.5q-19 -16 -45.5 -23t-71.5 -7h-247z" />
<glyph unicode="z" horiz-adv-x="1026" d="M-84 2l664 780q-21 -8 -67.5 -12t-113.5 -4q-39 0 -97 1t-75 1q-36 0 -72 -12.5t-61 -34.5l27 170q9 61 39.5 84.5t101.5 23.5q73 0 267.5 -12t316.5 -12q64 0 114 4t91 12l-661 -794q62 -3 205 -38.5t222 -35.5q48 0 84 9.5t62 29.5l-68 -178q-15 -43 -54 -64.5 t-100 -21.5q-83 0 -268 48q-18 5 -27 7q-19 5 -61 17q-178 50 -295 50q-48 0 -91 -4.5t-83 -13.5z" />
<glyph unicode="{" horiz-adv-x="1024" d="M158 426v209q7 0 21 -1t20 -1q120 0 171.5 58t51.5 196v250q0 143 23.5 201t80.5 92q47 25 114 37t167 12q12 0 37 -1t39 -1v-209q-9 0 -25 1t-22 1q-101 0 -136.5 -38.5t-35.5 -162.5v-240q0 -148 -45 -210t-162 -89q117 -27 162 -88t45 -209v-241q0 -123 35 -161 t137 -38q6 0 22 1t25 1v-209q-14 0 -39 -1t-37 -1q-100 0 -167 12t-114 37q-57 34 -80.5 91.5t-23.5 199.5v252q0 137 -51 194.5t-172 57.5q-6 0 -20 -1t-21 -1z" />
<glyph unicode="|" horiz-adv-x="1024" d="M410 -483v2048h206v-2048h-206z" />
<glyph unicode="}" horiz-adv-x="1024" d="M143 -205q9 0 25 -1t22 -1q101 0 136.5 38.5t35.5 160.5v239q0 150 45 211.5t162 87.5q-117 27 -162 89t-45 210v242q0 122 -35.5 160.5t-136.5 38.5q-6 0 -22 -1t-25 -1v209h68q110 0 177 -12t112 -38q57 -32 80.5 -91.5t23.5 -198.5v-252q0 -137 51 -194.5t172 -57.5 q6 0 20 1t21 1v-209h-37q-125 0 -176 -56t-51 -194v-252q0 -143 -23.5 -201t-80.5 -90q-47 -25 -114 -37t-167 -12q-12 0 -37 1t-39 1v209z" />
<glyph unicode="~" horiz-adv-x="1706" d="M178 418v221q107 72 204 107.5t183 35.5q117 0 291 -58l4 -1l55 -19q155 -55 240 -55t175 37t200 117v-221q-104 -71 -196.5 -104.5t-182.5 -33.5q-46 0 -92 8t-92 23q-24 8 -71 25q-219 75 -333 75q-85 0 -177.5 -37.5t-207.5 -119.5z" />
<glyph d="M-29 438l45 119h110q5 44 10 81t11 68l-135 1l45 118h121q78 234 237.5 368t366.5 134q159 0 256 -80.5t97 -212.5q0 -111 -62.5 -189.5t-152.5 -78.5q-57 0 -87 31t-30 86q0 24 6.5 49t17.5 45q4 -4 10.5 -6t14.5 -2q17 0 30 18t13 43q0 31 -28.5 49.5t-78.5 18.5 q-96 0 -177 -72t-132 -201h275l-41 -118h-273q-8 -35 -14.5 -73.5t-9.5 -76.5h248l-43 -119h-207q5 -109 57 -165t150 -56q93 0 190.5 33t196.5 98l-41 -176l-1 -3q-20 -81 -51 -103q-52 -41 -146.5 -66t-195.5 -25q-211 0 -324.5 118.5t-121.5 344.5h-156z" />
<glyph unicode="&#x20ac;" d="M-29 438l45 119h110q5 44 10 81t11 68l-135 1l45 118h121q78 234 237.5 368t366.5 134q159 0 256 -80.5t97 -212.5q0 -111 -62.5 -189.5t-152.5 -78.5q-57 0 -87 31t-30 86q0 24 6.5 49t17.5 45q4 -4 10.5 -6t14.5 -2q17 0 30 18t13 43q0 31 -28.5 49.5t-78.5 18.5 q-96 0 -177 -72t-132 -201h275l-41 -118h-273q-8 -35 -14.5 -73.5t-9.5 -76.5h248l-43 -119h-207q5 -109 57 -165t150 -56q93 0 190.5 33t196.5 98l-41 -176l-1 -3q-20 -81 -51 -103q-52 -41 -146.5 -66t-195.5 -25q-211 0 -324.5 118.5t-121.5 344.5h-156z" />
<glyph unicode="&#xa0;" />
<glyph unicode="&#xa1;" horiz-adv-x="694" d="M72 -6l192 905l250 45l-108 -926zM283 1245q0 75 51.5 127.5t126.5 52.5q67 0 110 -42t43 -107q0 -76 -51 -127t-129 -51q-68 0 -109.5 40.5t-41.5 106.5z" />
<glyph unicode="&#xa2;" d="M195 616q0 208 104.5 346t280.5 162l28 174h213l-26 -174q99 -25 147.5 -53t48.5 -61q0 -9 -2.5 -18t-7.5 -19l-59 -129q-53 40 -108 60t-116 20q-98 0 -163.5 -76t-65.5 -191q0 -107 55.5 -165t157.5 -58q57 0 114 19.5t109 56.5l-22 -156q-9 -67 -58 -94.5t-172 -32.5 l-39 -245l-219 -29l47 291q-120 35 -183.5 131t-63.5 241z" />
<glyph unicode="&#xa3;" d="M37 0q161 120 243 253t82 273v30q0 10 -2 19h-124q-27 0 -54 -2t-53 -6l76 166q9 20 26.5 28.5t53.5 8.5h54q-8 58 -12.5 104t-4.5 80q0 175 102.5 274t284.5 99q154 0 277.5 -54t123.5 -110q0 -4 -2.5 -13t-7.5 -24l-66 -161q-53 66 -124 102.5t-148 36.5 q-83 0 -128.5 -46.5t-45.5 -129.5q0 -28 6 -68t18 -90h150q58 0 97 2.5t68 7.5l-77 -155q-13 -28 -31 -39t-53 -11h-137q1 -8 1.5 -17t0.5 -23q0 -90 -31 -167t-94 -145q10 1 24 1.5t41 0.5q31 0 104 -2t116 -2q52 0 105.5 10.5t104.5 30.5l-114 -211q-16 -29 -40.5 -40 t-82.5 -11q-12 0 -64 1q-200 5 -381 5q-61 0 -132 -1.5t-150 -4.5z" />
<glyph unicode="&#xa4;" d="M-29 438l45 119h110q5 44 10 81t11 68l-135 1l45 118h121q78 234 237.5 368t366.5 134q159 0 256 -80.5t97 -212.5q0 -111 -62.5 -189.5t-152.5 -78.5q-57 0 -87 31t-30 86q0 24 6.5 49t17.5 45q4 -4 10.5 -6t14.5 -2q17 0 30 18t13 43q0 31 -28.5 49.5t-78.5 18.5 q-96 0 -177 -72t-132 -201h275l-41 -118h-273q-8 -35 -14.5 -73.5t-9.5 -76.5h248l-43 -119h-207q5 -109 57 -165t150 -56q93 0 190.5 33t196.5 98l-41 -176l-1 -3q-20 -81 -51 -103q-52 -41 -146.5 -66t-195.5 -25q-211 0 -324.5 118.5t-121.5 344.5h-156z" />
<glyph unicode="&#xa5;" d="M29 1074l37 147q11 42 39 60.5t79 18.5q141 0 254.5 -125t169.5 -344q133 255 227.5 362t182.5 107h270q-106 -88 -213.5 -204t-216.5 -260h217l-16 -119h-287q-20 -29 -36 -66t-29 -84h327l-18 -118h-332l-41 -269q-5 -35 -6.5 -53t-1.5 -35q0 -26 5 -48.5t15 -43.5 h-364q26 29 44.5 76t29.5 112l41 261h-336l22 118l332 1l3 23q5 37 5 52q0 17 -2.5 35t-8.5 39h-310l22 119h236q-59 118 -134.5 182.5t-152.5 64.5q-13 0 -26.5 -2.5t-26.5 -6.5z" />
<glyph unicode="&#xa6;" horiz-adv-x="1024" d="M410 -350v758h206v-758h-206zM410 674v758h206v-758h-206z" />
<glyph unicode="&#xa7;" horiz-adv-x="1100" d="M66 -115q0 9 2.5 19.5t7.5 22.5l51 143q66 -65 144.5 -101.5t150.5 -36.5q52 0 82.5 25t30.5 68q0 68 -173 235l-57 55q-116 114 -161.5 195.5t-45.5 167.5q0 107 69 194t187 125q-26 38 -38.5 75.5t-12.5 76.5q0 130 102 208.5t273 78.5q150 0 233.5 -36t83.5 -100 q0 -7 -0.5 -11t-1.5 -7l-30 -174q-71 65 -140 99t-129 34q-44 0 -73 -22t-29 -54q0 -65 113 -177l43 -42q155 -155 202 -233.5t47 -153.5q0 -110 -65.5 -192t-188.5 -125q46 -49 68.5 -98.5t22.5 -102.5q0 -139 -113 -228t-291 -89q-142 0 -253 52t-111 109zM358 702 q0 -47 41 -106t197 -213q61 22 98 63t37 86q0 80 -229 300l-23 22q-62 -26 -91.5 -63t-29.5 -89z" />
<glyph unicode="&#xa8;" horiz-adv-x="1024" d="M330 1286q0 55 40.5 94t98.5 39q51 0 83 -31t32 -81q0 -57 -39 -96.5t-94 -39.5q-54 0 -87.5 32.5t-33.5 82.5zM684 1286q0 55 40 94t97 39q52 0 83.5 -31t31.5 -81q0 -57 -38 -96.5t-93 -39.5q-54 0 -87.5 32.5t-33.5 82.5z" />
<glyph unicode="&#xa9;" horiz-adv-x="1706" d="M111 733q0 149 56 284.5t163 244.5q105 106 238 161.5t284 55.5q152 0 287.5 -56t242.5 -163q105 -105 160 -240.5t55 -286.5q0 -152 -54.5 -284t-160.5 -236q-111 -108 -248 -165.5t-282 -57.5q-147 0 -280.5 56.5t-241.5 164.5q-107 106 -163 240.5t-56 281.5zM233 735 q0 -125 47 -237t136 -201q88 -88 201 -135t237 -47t237.5 47t204.5 137q88 86 133.5 197t45.5 239q0 126 -46.5 238.5t-134.5 200.5q-89 89 -201 135.5t-239 46.5q-128 0 -239.5 -46t-198.5 -134q-89 -90 -136 -203.5t-47 -237.5zM453 729q0 206 109.5 328.5t293.5 122.5 q152 0 250.5 -78t105.5 -205h-188q-8 70 -53 108.5t-119 38.5q-91 0 -143 -81.5t-52 -227.5q0 -147 52 -224t151 -77q73 0 117 42t53 119l193 1q-8 -139 -109 -223t-260 -84q-186 0 -293.5 118t-107.5 322z" />
<glyph unicode="&#xaa;" horiz-adv-x="852" d="M29 969q0 81 24 153t72 133q60 76 140.5 119t162.5 43q52 0 92 -16.5t68 -48.5q12 26 29 38.5t40 12.5h136q-56 -113 -87.5 -238t-31.5 -231q0 -60 26 -88.5t80 -28.5h13q-9 -54 -44 -84.5t-87 -30.5t-92 30t-60 83q-44 -56 -103.5 -85.5t-130.5 -29.5q-110 0 -178.5 74 t-68.5 195zM244 971q0 -53 19.5 -80t58.5 -27q28 0 55.5 18.5t50.5 53.5q32 44 54 114.5t22 127.5q0 33 -17.5 53t-46.5 20q-33 0 -66.5 -21t-62.5 -61q-31 -45 -49 -98t-18 -100z" />
<glyph unicode="&#xab;" horiz-adv-x="1231" d="M43 537q121 60 224.5 141.5t189.5 185.5h192q-45 -115 -112 -200t-154 -138q63 -68 108 -148t70 -167h-199q-69 107 -147.5 187t-171.5 139zM535 537q121 60 224 141.5t189 185.5h193q-46 -115 -112.5 -200t-154.5 -138q63 -68 108 -148t71 -167h-199q-69 107 -147.5 187 t-171.5 139z" />
<glyph unicode="&#xac;" horiz-adv-x="1706" d="M254 668v196h1198v-502h-199v306h-999z" />
<glyph unicode="&#xad;" horiz-adv-x="610" d="M43 422l35 225h422l-35 -225h-422z" />
<glyph unicode="&#xae;" horiz-adv-x="1706" d="M111 733q0 102 27 198.5t81 188.5q101 170 267 264.5t366 94.5q154 0 290.5 -57.5t243.5 -166.5q103 -104 157 -238t54 -284q0 -152 -56 -287.5t-163 -238.5q-107 -105 -243.5 -161t-282.5 -56q-149 0 -285 58t-243 167q-104 105 -158.5 238.5t-54.5 279.5zM233 735 q0 -124 46 -235.5t133 -198.5q89 -91 203 -139.5t237 -48.5q120 0 233.5 47t206.5 135q87 84 135 196t48 232q0 133 -44.5 245t-132.5 201q-90 93 -202.5 140t-241.5 47q-127 0 -236 -44.5t-196 -131.5q-91 -91 -140 -206.5t-49 -238.5zM545 336v825h323q176 0 264.5 -59.5 t88.5 -177.5q0 -82 -48 -140t-133 -79l185 -369h-224l-157 338h-99v-338h-200zM745 795h99q88 0 129 28t41 88q0 63 -44 93t-136 30h-89v-239z" />
<glyph unicode="&#xaf;" horiz-adv-x="1024" d="M332 1223l30 147h574l-31 -147h-573z" />
<glyph unicode="&#xb0;" horiz-adv-x="674" d="M35 1159q0 127 88.5 216t214.5 89t214.5 -89.5t88.5 -215.5q0 -125 -89 -214t-216 -89q-126 0 -213.5 88t-87.5 215zM162 1161q0 -74 51 -125t125 -51q72 0 123 52t51 124t-51 123t-123 51q-73 0 -124.5 -51t-51.5 -123z" />
<glyph unicode="&#xb1;" horiz-adv-x="1706" d="M254 -2v199h1198v-199h-1198zM254 698v199h498v326h202v-326h498v-199h-498v-325h-202v325h-498z" />
<glyph unicode="&#xb2;" horiz-adv-x="752" d="M17 520l18 103q203 149 313.5 268t110.5 188q0 41 -28.5 63.5t-80.5 22.5q-45 0 -92 -19.5t-88 -55.5l-57 89q-5 7 -7.5 13t-3.5 12q0 36 85.5 74.5t187.5 38.5q124 0 201 -63t77 -164q0 -94 -81.5 -193.5t-270.5 -234.5q51 6 167.5 7.5t172.5 20.5l-47 -123 q-11 -26 -35.5 -36.5t-79.5 -10.5q-19 0 -106 3t-156 3q-42 0 -92.5 -1.5t-107.5 -4.5z" />
<glyph unicode="&#xb3;" horiz-adv-x="752" d="M41 702q47 -21 97 -32t102 -11q82 0 131 33t49 88q0 54 -54 100.5t-153 77.5q112 24 170.5 61.5t58.5 84.5q0 29 -21.5 46t-60.5 17q-43 0 -90.5 -16t-93.5 -47l-49 96q-3 4 -4.5 9t-1.5 16q0 30 84.5 60t187.5 30q112 0 180 -48t68 -124q0 -61 -40 -110.5t-107 -71.5 q63 -30 96 -77t33 -110q0 -114 -102.5 -191t-260.5 -77q-107 0 -157.5 21t-53.5 65z" />
<glyph unicode="&#xb4;" horiz-adv-x="1024" d="M436 1120l234 365h250l-355 -365h-129z" />
<glyph unicode="&#xb5;" horiz-adv-x="1249" d="M-63 -438l268 1530h289l-76 -435q-15 -80 -23 -151.5t-8 -116.5q0 -93 42 -138.5t128 -45.5q100 0 155.5 82t92.5 291l90 514h289l-193 -1092h-268l18 117q-42 -78 -93.5 -114t-121.5 -36q-67 0 -119 29.5t-94 91.5l-90 -526h-286z" />
<glyph unicode="&#xb6;" horiz-adv-x="1024" d="M41 1130q0 158 107 253.5t284 95.5h551v-111h-113v-1368h-151v1368h-158v-1368h-153v784q-167 6 -267 101t-100 245z" />
<glyph unicode="&#xb7;" horiz-adv-x="569" d="M109 651q0 72 49 122t121 50t122 -50t50 -122q0 -71 -50.5 -120.5t-121.5 -49.5t-120.5 50t-49.5 120z" />
<glyph unicode="&#xb8;" horiz-adv-x="1024" d="M80 -430l43 111q64 -24 121 -36t104 -12q54 0 84.5 23.5t30.5 64.5q0 42 -36 59t-128 17h-41l70 203h96l-35 -98h8q107 0 163 -43t56 -125q0 -101 -66.5 -158t-184.5 -57q-58 0 -129.5 12.5t-155.5 38.5z" />
<glyph unicode="&#xb9;" horiz-adv-x="752" d="M172 520q23 20 37 51.5t22 81.5l93 531q3 23 4.5 33t1.5 14q0 17 -2.5 30t-7.5 25l221 31l-131 -748q-6 -28 -20.5 -38.5t-47.5 -10.5h-170z" />
<glyph unicode="&#xba;" horiz-adv-x="813" d="M29 999q0 89 32 169t91 139q54 56 126.5 84t161.5 28q137 0 216 -79.5t79 -219.5q0 -186 -115 -305t-296 -119q-132 0 -213.5 83.5t-81.5 219.5zM242 973q0 -56 27 -87.5t75 -31.5q75 0 126.5 82.5t51.5 204.5q0 59 -26 91t-74 32q-75 0 -127.5 -84.5t-52.5 -206.5z" />
<glyph unicode="&#xbb;" horiz-adv-x="1231" d="M43 211q43 114 110 200t154 140q-65 73 -109.5 151.5t-68.5 161.5h199q74 -112 153 -191.5t166 -131.5q-126 -66 -228 -147.5t-186 -182.5h-190zM535 211q42 113 110 199.5t156 140.5q-67 75 -112.5 154t-67.5 159h198q75 -112 153.5 -191.5t166.5 -131.5 q-127 -66 -229 -147.5t-185 -182.5h-190z" />
<glyph unicode="&#xbc;" horiz-adv-x="1776" d="M166 573q20 18 33 46.5t22 76.5l88 495q4 21 5 31t1 15q0 17 -2.5 29t-7.5 22l211 29l-125 -699q-4 -25 -18 -35t-47 -10h-160zM410 -25l786 1352h170l-788 -1352h-168zM1061 154l22 120l463 465h146l-82 -465q25 0 49 4t47 13l-37 -111q-4 -14 -15 -20t-32 -6h-35 l-30 -182q-7 -29 -16.5 -36.5t-37.5 -13.5l-168 -37q12 21 22 48.5t17 59.5l35 161h-348zM1253 272h199l74 306z" />
<glyph unicode="&#xbd;" horiz-adv-x="1776" d="M166 573q20 18 33 46.5t22 76.5l88 495q4 21 5 31t1 15q0 17 -2.5 29t-7.5 22l211 29l-125 -699q-4 -25 -18 -35t-47 -10h-160zM410 -25l786 1352h170l-788 -1352h-168zM1076 0l16 96q194 139 299.5 250t105.5 176q0 37 -28 58.5t-76 21.5q-44 0 -88.5 -18t-83.5 -52 l-56 85q-1 2 -5.5 9.5t-4.5 10.5q0 35 82 70.5t180 35.5q118 0 191 -59t73 -154q0 -87 -78.5 -181t-256.5 -218q47 6 160 8t165 21l-45 -117q-9 -24 -32 -33.5t-78 -9.5q-18 0 -101 3t-149 3q-40 0 -88 -1.5t-102 -4.5z" />
<glyph unicode="&#xbe;" horiz-adv-x="1778" d="M41 743q43 -20 91 -30.5t97 -10.5q78 0 124 31.5t46 83.5q0 51 -50 93.5t-144 72.5q107 23 162 57t55 78q0 28 -20.5 44t-57.5 16q-43 0 -87.5 -15.5t-86.5 -44.5l-49 90q-3 6 -4.5 11.5t-1.5 11.5q0 28 80.5 56t179.5 28q107 0 172 -45t65 -117q0 -56 -37.5 -101.5 t-103.5 -68.5q60 -26 91.5 -70t31.5 -102q0 -107 -98 -178.5t-248 -71.5q-102 0 -149.5 18.5t-51.5 59.5zM410 -25l786 1352h170l-788 -1352h-168zM1061 154l22 120l463 465h146l-82 -465q25 0 49 4t47 13l-37 -111q-4 -14 -15 -20t-32 -6h-35l-30 -182q-7 -29 -16.5 -36.5 t-37.5 -13.5l-168 -37q12 21 22 48.5t17 59.5l35 161h-348zM1253 272h199l74 306z" />
<glyph unicode="&#xbf;" horiz-adv-x="924" d="M76 258q0 28 6.5 57.5t19.5 61.5q40 87 152 195q38 36 53 52q79 88 112.5 164.5t33.5 165.5v15l172 -66q32 -12 45.5 -32t13.5 -54q0 -59 -27 -120t-79 -119l-78 -83q-115 -118 -115 -171q0 -44 26.5 -70.5t71.5 -26.5q50 0 93.5 26.5t70.5 74.5l84 -139q9 -14 14 -28 t5 -26q0 -60 -96.5 -105.5t-237.5 -45.5q-158 0 -249 73.5t-91 200.5zM451 1251q0 74 50.5 126.5t123.5 52.5q72 0 114.5 -40.5t42.5 -107.5q0 -74 -51.5 -126t-126.5 -52q-68 0 -110.5 41t-42.5 106z" />
<glyph unicode="&#xc0;" horiz-adv-x="1481" d="M-135 162q94 22 181.5 105t186.5 247q28 46 116.5 218.5t164.5 273.5q49 66 92.5 110t83.5 68q-61 -9 -90 -12t-49 -3q-148 0 -194.5 26t-61.5 97l-35 154q80 -25 229.5 -38t348.5 -13h299q60 0 86 -19.5t41 -75.5q17 -58 28 -234t11 -413q0 -115 -3.5 -270t-3.5 -195 q0 -68 5.5 -111.5t17.5 -76.5h-422q46 62 72.5 183.5t35.5 322.5q-87 2 -135.5 3t-89.5 1q-39 0 -87 -1l-144 -3q-141 -263 -246 -384.5t-192 -121.5q-18 0 -34.5 6t-35.5 21zM652 733q31 -1 67.5 -1.5t111.5 -0.5q74 0 110.5 0.5t67.5 1.5q3 58 4 87.5t1 53.5v41 q0 158 -11 197t-40 39q-51 0 -138.5 -115.5t-172.5 -302.5zM682 1911h221l186 -365h-118z" />
<glyph unicode="&#xc1;" horiz-adv-x="1481" d="M-135 162q94 22 181.5 105t186.5 247q28 46 116.5 218.5t164.5 273.5q49 66 92.5 110t83.5 68q-61 -9 -90 -12t-49 -3q-148 0 -194.5 26t-61.5 97l-35 154q80 -25 229.5 -38t348.5 -13h299q60 0 86 -19.5t41 -75.5q17 -58 28 -234t11 -413q0 -115 -3.5 -270t-3.5 -195 q0 -68 5.5 -111.5t17.5 -76.5h-422q46 62 72.5 183.5t35.5 322.5q-87 2 -135.5 3t-89.5 1q-39 0 -87 -1l-144 -3q-141 -263 -246 -384.5t-192 -121.5q-18 0 -34.5 6t-35.5 21zM652 733q31 -1 67.5 -1.5t111.5 -0.5q74 0 110.5 0.5t67.5 1.5q3 58 4 87.5t1 53.5v41 q0 158 -11 197t-40 39q-51 0 -138.5 -115.5t-172.5 -302.5zM780 1546l234 365h250l-355 -365h-129z" />
<glyph unicode="&#xc2;" horiz-adv-x="1481" d="M-135 162q94 22 181.5 105t186.5 247q28 46 116.5 218.5t164.5 273.5q49 66 92.5 110t83.5 68q-61 -9 -90 -12t-49 -3q-148 0 -194.5 26t-61.5 97l-35 154q80 -25 229.5 -38t348.5 -13h299q60 0 86 -19.5t41 -75.5q17 -58 28 -234t11 -413q0 -115 -3.5 -270t-3.5 -195 q0 -68 5.5 -111.5t17.5 -76.5h-422q46 62 72.5 183.5t35.5 322.5q-87 2 -135.5 3t-89.5 1q-39 0 -87 -1l-144 -3q-141 -263 -246 -384.5t-192 -121.5q-18 0 -34.5 6t-35.5 21zM631 1546l266 365h205l139 -365h-117l-137 217l-227 -217h-129zM652 733q31 -1 67.5 -1.5 t111.5 -0.5q74 0 110.5 0.5t67.5 1.5q3 58 4 87.5t1 53.5v41q0 158 -11 197t-40 39q-51 0 -138.5 -115.5t-172.5 -302.5z" />
<glyph unicode="&#xc3;" horiz-adv-x="1481" d="M-135 162q94 22 181.5 105t186.5 247q28 46 116.5 218.5t164.5 273.5q49 66 92.5 110t83.5 68q-61 -9 -90 -12t-49 -3q-148 0 -194.5 26t-61.5 97l-35 154q80 -25 229.5 -38t348.5 -13h299q60 0 86 -19.5t41 -75.5q17 -58 28 -234t11 -413q0 -115 -3.5 -270t-3.5 -195 q0 -68 5.5 -111.5t17.5 -76.5h-422q46 62 72.5 183.5t35.5 322.5q-87 2 -135.5 3t-89.5 1q-39 0 -87 -1l-144 -3q-141 -263 -246 -384.5t-192 -121.5q-18 0 -34.5 6t-35.5 21zM652 733q31 -1 67.5 -1.5t111.5 -0.5q74 0 110.5 0.5t67.5 1.5q3 58 4 87.5t1 53.5v41 q0 158 -11 197t-40 39q-51 0 -138.5 -115.5t-172.5 -302.5zM661 1583q31 117 85 175.5t133 58.5q19 0 41 -4t43 -11l69 -20q21 -7 33.5 -9.5t23.5 -3.5q36 0 60.5 21.5t40.5 65.5h102q-33 -118 -86 -174t-131 -56q-15 0 -34 3.5t-46 10.5l-69 21q-21 6 -35.5 9t-24.5 3 q-37 0 -62.5 -22t-39.5 -68h-103z" />
<glyph unicode="&#xc4;" horiz-adv-x="1481" d="M-135 162q94 22 181.5 105t186.5 247q28 46 116.5 218.5t164.5 273.5q49 66 92.5 110t83.5 68q-61 -9 -90 -12t-49 -3q-148 0 -194.5 26t-61.5 97l-35 154q80 -25 229.5 -38t348.5 -13h299q60 0 86 -19.5t41 -75.5q17 -58 28 -234t11 -413q0 -115 -3.5 -270t-3.5 -195 q0 -68 5.5 -111.5t17.5 -76.5h-422q46 62 72.5 183.5t35.5 322.5q-87 2 -135.5 3t-89.5 1q-39 0 -87 -1l-144 -3q-141 -263 -246 -384.5t-192 -121.5q-18 0 -34.5 6t-35.5 21zM652 733q31 -1 67.5 -1.5t111.5 -0.5q74 0 110.5 0.5t67.5 1.5q3 58 4 87.5t1 53.5v41 q0 158 -11 197t-40 39q-51 0 -138.5 -115.5t-172.5 -302.5zM674 1712q0 55 40.5 94t98.5 39q51 0 83 -31t32 -81q0 -57 -39 -96.5t-94 -39.5q-54 0 -87.5 32.5t-33.5 82.5zM1028 1712q0 55 40 94t97 39q52 0 83.5 -31t31.5 -81q0 -57 -38 -96.5t-93 -39.5q-54 0 -87.5 32.5 t-33.5 82.5z" />
<glyph unicode="&#xc5;" horiz-adv-x="1481" d="M-135 162q94 22 181.5 105t186.5 247q28 46 116.5 218.5t164.5 273.5q49 66 92.5 110t83.5 68q-61 -9 -90 -12t-49 -3q-148 0 -194.5 26t-61.5 97l-35 154q88 -27 239.5 -42t338.5 -15q133 0 268 5q25 1 31 1q60 0 86 -19.5t41 -75.5q17 -58 28 -234t11 -413 q0 -115 -3.5 -270t-3.5 -195q0 -68 5.5 -111.5t17.5 -76.5h-422q46 62 72.5 183.5t35.5 322.5q-87 2 -135.5 3t-89.5 1q-39 0 -87 -1l-144 -3q-141 -263 -246 -384.5t-192 -121.5q-18 0 -34.5 6t-35.5 21zM652 733q31 -1 68 -1.5t114 -0.5q71 0 107.5 0.5t67.5 1.5 q3 58 4 87.5t1 53.5v41q0 158 -11 197t-40 39q-51 0 -138.5 -115.5t-172.5 -302.5zM707 1724q0 110 74.5 185.5t183.5 75.5q108 0 184 -76t76 -185q0 -108 -75.5 -183t-184.5 -75t-183.5 74.5t-74.5 183.5zM831 1724q0 -57 39 -96t97 -39q56 0 94.5 38.5t38.5 94.5 q0 57 -39 97.5t-94 40.5q-57 0 -96.5 -39.5t-39.5 -96.5z" />
<glyph unicode="&#xc6;" horiz-adv-x="1778" d="M-121 162q95 22 181.5 104t187.5 248q25 41 113 213t167 279q45 59 88 102.5t86 70.5q-69 -7 -107.5 -9.5t-72.5 -2.5q-117 0 -156.5 26t-56.5 99l-35 154q69 -24 222.5 -37.5t355.5 -13.5q233 0 491.5 8t284.5 8q79 0 108 -21.5t29 -76.5q0 -13 -1 -25l-1 -12l-18 -148 q-50 20 -119 29.5t-153 9.5q-41 0 -134 -7q-8 -1 -12 -1l-45 -285h166q50 0 90.5 7t73.5 20l-47 -305q-27 15 -60.5 22t-77.5 7h-186l-57 -373q28 -3 57 -4.5t76 -1.5q135 0 214.5 8t133.5 27l-57 -181q-18 -58 -49.5 -79t-114.5 -21q-9 0 -49 1q-160 5 -305 5 q-80 0 -150 -1.5t-131 -4.5q30 38 50.5 92.5t33.5 134.5l44 279q-70 2 -109.5 3t-73.5 1q-60 0 -185 -4h-6q-140 -263 -245.5 -384.5t-192.5 -121.5q-18 0 -37.5 7t-36.5 20zM666 734q28 -2 60 -2.5t95 -0.5t93 0.5t57 2.5l65 394q0 3 1 7.5t1 7.5q0 19 -11 30t-30 11 q-61 0 -152 -122.5t-179 -327.5z" />
<glyph unicode="&#xc7;" horiz-adv-x="1370" d="M82 629q0 359 213 580t559 221q210 0 338.5 -92t128.5 -238q0 -122 -92 -204.5t-228 -82.5q-67 0 -101 26t-34 79q0 11 3.5 26t9.5 31l20 67q13 -8 27.5 -12t36.5 -4q39 0 64.5 20.5t25.5 53.5q0 42 -50 66t-139 24q-205 0 -339 -148t-134 -376q0 -199 104.5 -311.5 t286.5 -112.5q99 0 211.5 38t233.5 111l-27 -186q-6 -41 -18.5 -67t-32.5 -44q-56 -47 -177.5 -79.5t-252.5 -32.5q-296 0 -466.5 172.5t-170.5 474.5zM387 -430l43 111q64 -24 121 -36t104 -12q54 0 84.5 23.5t30.5 64.5q0 42 -36 59t-128 17h-41l70 203h96l-35 -98h8 q107 0 163 -43t56 -125q0 -101 -66.5 -158t-184.5 -57q-58 0 -129.5 12.5t-155.5 38.5z" />
<glyph unicode="&#xc8;" horiz-adv-x="995" d="M13 0q28 35 48 90t33 137l162 1016q2 17 3 33.5t1 34.5q0 33 -6 57.5t-18 44.5q18 0 55 -1q148 -3 203 -3q59 0 148.5 1t119.5 1q72 0 111 -2.5t58 -7.5q29 -8 40.5 -26t11.5 -54q0 -22 -0.5 -31t-1.5 -14l-18 -148q-50 20 -118.5 29.5t-154.5 9.5q-40 0 -133 -7 q-8 -1 -12 -1l-45 -285h166q50 0 90 7t73 20l-49 -305q-27 15 -58.5 22t-74.5 7h-188l-57 -373q28 -3 57 -4.5t76 -1.5q133 0 212.5 8t135.5 27l-58 -181q-18 -59 -49 -79.5t-112 -20.5q-15 0 -103.5 3t-163.5 3q-85 0 -181.5 -1.5t-202.5 -4.5zM375 1911h221l186 -365h-118 z" />
<glyph unicode="&#xc9;" horiz-adv-x="995" d="M13 0q28 35 48 90t33 137l162 1016q2 17 3 33.5t1 34.5q0 33 -6 57.5t-18 44.5q18 0 55 -1q148 -3 203 -3q59 0 148.5 1t119.5 1q72 0 111 -2.5t58 -7.5q29 -8 40.5 -26t11.5 -54q0 -22 -0.5 -31t-1.5 -14l-18 -148q-50 20 -118.5 29.5t-154.5 9.5q-40 0 -133 -7 q-8 -1 -12 -1l-45 -285h166q50 0 90 7t73 20l-49 -305q-27 15 -58.5 22t-74.5 7h-188l-57 -373q28 -3 57 -4.5t76 -1.5q133 0 212.5 8t135.5 27l-58 -181q-18 -59 -49 -79.5t-112 -20.5q-15 0 -103.5 3t-163.5 3q-85 0 -181.5 -1.5t-202.5 -4.5zM473 1546l234 365h250 l-355 -365h-129z" />
<glyph unicode="&#xca;" horiz-adv-x="995" d="M13 0q28 35 48 90t33 137l162 1016q2 17 3 33.5t1 34.5q0 33 -6 57.5t-18 44.5q18 0 55 -1q148 -3 203 -3q59 0 148.5 1t119.5 1q72 0 111 -2.5t58 -7.5q29 -8 40.5 -26t11.5 -54q0 -22 -0.5 -31t-1.5 -14l-18 -148q-50 20 -118.5 29.5t-154.5 9.5q-40 0 -133 -7 q-8 -1 -12 -1l-45 -285h166q50 0 90 7t73 20l-49 -305q-27 15 -58.5 22t-74.5 7h-188l-57 -373q28 -3 57 -4.5t76 -1.5q133 0 212.5 8t135.5 27l-58 -181q-18 -59 -49 -79.5t-112 -20.5q-15 0 -103.5 3t-163.5 3q-85 0 -181.5 -1.5t-202.5 -4.5zM324 1546l266 365h205 l139 -365h-117l-137 217l-227 -217h-129z" />
<glyph unicode="&#xcb;" horiz-adv-x="995" d="M13 0q28 35 48 90t33 137l162 1016q2 17 3 33.5t1 34.5q0 33 -6 57.5t-18 44.5q18 0 55 -1q148 -3 203 -3q59 0 148.5 1t119.5 1q72 0 111 -2.5t58 -7.5q29 -8 40.5 -26t11.5 -54q0 -22 -0.5 -31t-1.5 -14l-18 -148q-50 20 -118.5 29.5t-154.5 9.5q-40 0 -133 -7 q-8 -1 -12 -1l-45 -285h166q50 0 90 7t73 20l-49 -305q-27 15 -58.5 22t-74.5 7h-188l-57 -373q28 -3 57 -4.5t76 -1.5q133 0 212.5 8t135.5 27l-58 -181q-18 -59 -49 -79.5t-112 -20.5q-15 0 -103.5 3t-163.5 3q-85 0 -181.5 -1.5t-202.5 -4.5zM367 1712q0 55 40.5 94 t98.5 39q51 0 83 -31t32 -81q0 -57 -39 -96.5t-94 -39.5q-54 0 -87.5 32.5t-33.5 82.5zM721 1712q0 55 40 94t97 39q52 0 83.5 -31t31.5 -81q0 -57 -38 -96.5t-93 -39.5q-54 0 -87.5 32.5t-33.5 82.5z" />
<glyph unicode="&#xcc;" horiz-adv-x="664" d="M23 0q29 33 49.5 90t36.5 158l145 915q7 44 10.5 80t3.5 64q0 34 -6 59.5t-18 46.5h397q-30 -33 -50.5 -91.5t-35.5 -156.5l-145 -915q-7 -46 -11 -81t-4 -50q0 -44 6 -71t19 -48h-397zM209 1911h221l186 -365h-118z" />
<glyph unicode="&#xcd;" horiz-adv-x="664" d="M23 0q29 33 49.5 90t36.5 158l145 915q7 44 10.5 80t3.5 64q0 34 -6 59.5t-18 46.5h397q-30 -33 -50.5 -91.5t-35.5 -156.5l-145 -915q-7 -46 -11 -81t-4 -50q0 -44 6 -71t19 -48h-397zM307 1546l234 365h250l-355 -365h-129z" />
<glyph unicode="&#xce;" horiz-adv-x="664" d="M23 0q29 33 49.5 90t36.5 158l145 915q7 44 10.5 80t3.5 64q0 34 -6 59.5t-18 46.5h397q-30 -33 -50.5 -91.5t-35.5 -156.5l-145 -915q-7 -46 -11 -81t-4 -50q0 -44 6 -71t19 -48h-397zM158 1546l266 365h205l139 -365h-117l-137 217l-227 -217h-129z" />
<glyph unicode="&#xcf;" horiz-adv-x="664" d="M23 0q29 33 49.5 90t36.5 158l145 915q7 44 10.5 80t3.5 64q0 34 -6 59.5t-18 46.5h397q-30 -33 -50.5 -91.5t-35.5 -156.5l-145 -915q-7 -46 -11 -81t-4 -50q0 -44 6 -71t19 -48h-397zM201 1712q0 55 40.5 94t98.5 39q51 0 83 -31t32 -81q0 -57 -39 -96.5t-94 -39.5 q-54 0 -87.5 32.5t-33.5 82.5zM555 1712q0 55 40 94t97 39q52 0 83.5 -31t31.5 -81q0 -57 -38 -96.5t-93 -39.5q-54 0 -87.5 32.5t-33.5 82.5z" />
<glyph unicode="&#xd0;" horiz-adv-x="1536" d="M72 639l28 174h170l43 245q3 20 4.5 35.5t1.5 26.5q0 50 -23.5 70t-84.5 20q-10 0 -26 -2.5t-35 -6.5l88 183q12 25 41.5 37.5t74.5 12.5q63 0 107 -23t80 -74q78 49 161 73t179 24q267 0 422 -159t155 -433q0 -139 -37.5 -269.5t-109.5 -242.5q-110 -172 -271 -251 t-405 -79q-65 0 -187.5 2t-179.5 2q-71 0 -106 -1t-64 -3q28 28 50.5 92.5t35.5 155.5l60 391h-172zM488 250q41 -3 75 -4.5t62 -1.5q247 0 383.5 158.5t136.5 445.5q0 164 -74 252t-211 88q-65 0 -124.5 -22t-112.5 -66l-48 -287h273l-25 -174h-276z" />
<glyph unicode="&#xd1;" horiz-adv-x="1540" d="M39 0q31 43 51.5 92.5t30.5 106.5l155 989q-27 56 -68 111.5t-95 113.5h333l613 -971l121 791q3 19 4.5 38.5t1.5 39.5q0 30 -6 55t-19 47h377q-29 -34 -49.5 -86t-30.5 -117l-194 -1210h-195l-563 872l-99 -660q-4 -30 -7 -61t-3 -57q0 -27 5 -50t16 -44h-379zM608 1583 q31 117 85 175.5t133 58.5q19 0 41 -4t43 -11l69 -20q21 -7 33.5 -9.5t23.5 -3.5q36 0 60.5 21.5t40.5 65.5h102q-33 -118 -86 -174t-131 -56q-15 0 -34 3.5t-46 10.5l-69 21q-21 6 -35.5 9t-24.5 3q-37 0 -62.5 -22t-39.5 -68h-103z" />
<glyph unicode="&#xd2;" horiz-adv-x="1370" d="M80 578q0 173 48.5 330.5t137.5 275.5q97 127 219.5 189.5t276.5 62.5q256 0 393 -153t137 -437q0 -175 -51 -335.5t-147 -289.5q-90 -119 -216 -182.5t-274 -63.5q-251 0 -387.5 157t-136.5 446zM385 532q0 -152 57 -230.5t168 -78.5q86 0 151 46.5t118 146.5 q49 90 77.5 216.5t28.5 258.5q0 149 -59 224t-176 75q-75 0 -137 -41.5t-111 -124.5q-53 -92 -85 -225t-32 -267zM563 1911h221l186 -365h-118z" />
<glyph unicode="&#xd3;" horiz-adv-x="1370" d="M80 578q0 173 48.5 330.5t137.5 275.5q97 127 219.5 189.5t276.5 62.5q256 0 393 -153t137 -437q0 -175 -51 -335.5t-147 -289.5q-90 -119 -216 -182.5t-274 -63.5q-251 0 -387.5 157t-136.5 446zM385 532q0 -152 57 -230.5t168 -78.5q86 0 151 46.5t118 146.5 q49 90 77.5 216.5t28.5 258.5q0 149 -59 224t-176 75q-75 0 -137 -41.5t-111 -124.5q-53 -92 -85 -225t-32 -267zM661 1546l234 365h250l-355 -365h-129z" />
<glyph unicode="&#xd4;" horiz-adv-x="1370" d="M80 578q0 173 48.5 330.5t137.5 275.5q97 127 219.5 189.5t276.5 62.5q256 0 393 -153t137 -437q0 -175 -51 -335.5t-147 -289.5q-90 -119 -216 -182.5t-274 -63.5q-251 0 -387.5 157t-136.5 446zM385 532q0 -152 57 -230.5t168 -78.5q86 0 151 46.5t118 146.5 q49 90 77.5 216.5t28.5 258.5q0 149 -59 224t-176 75q-75 0 -137 -41.5t-111 -124.5q-53 -92 -85 -225t-32 -267zM512 1546l266 365h205l139 -365h-117l-137 217l-227 -217h-129z" />
<glyph unicode="&#xd5;" horiz-adv-x="1370" d="M80 578q0 173 48.5 330.5t137.5 275.5q97 127 219.5 189.5t276.5 62.5q256 0 393 -153t137 -437q0 -175 -51 -335.5t-147 -289.5q-90 -119 -216 -182.5t-274 -63.5q-251 0 -387.5 157t-136.5 446zM385 532q0 -152 57 -230.5t168 -78.5q86 0 151 46.5t118 146.5 q49 90 77.5 216.5t28.5 258.5q0 149 -59 224t-176 75q-75 0 -137 -41.5t-111 -124.5q-53 -92 -85 -225t-32 -267zM542 1583q31 117 85 175.5t133 58.5q19 0 41 -4t43 -11l69 -20q21 -7 33.5 -9.5t23.5 -3.5q36 0 60.5 21.5t40.5 65.5h102q-33 -118 -86 -174t-131 -56 q-15 0 -34 3.5t-46 10.5l-69 21q-21 6 -35.5 9t-24.5 3q-37 0 -62.5 -22t-39.5 -68h-103z" />
<glyph unicode="&#xd6;" horiz-adv-x="1370" d="M80 578q0 173 48.5 330.5t137.5 275.5q97 127 219.5 189.5t276.5 62.5q256 0 393 -153t137 -437q0 -175 -51 -335.5t-147 -289.5q-90 -119 -216 -182.5t-274 -63.5q-251 0 -387.5 157t-136.5 446zM385 532q0 -152 57 -230.5t168 -78.5q86 0 151 46.5t118 146.5 q49 90 77.5 216.5t28.5 258.5q0 149 -59 224t-176 75q-75 0 -137 -41.5t-111 -124.5q-53 -92 -85 -225t-32 -267zM555 1712q0 55 40.5 94t98.5 39q51 0 83 -31t32 -81q0 -57 -39 -96.5t-94 -39.5q-54 0 -87.5 32.5t-33.5 82.5zM909 1712q0 55 40 94t97 39q52 0 83.5 -31 t31.5 -81q0 -57 -38 -96.5t-93 -39.5q-54 0 -87.5 32.5t-33.5 82.5z" />
<glyph unicode="&#xd7;" horiz-adv-x="1706" d="M276 160l451 450l-451 453l140 139l450 -450l451 450l141 -139l-450 -453l450 -450l-141 -140l-451 451l-450 -451z" />
<glyph unicode="&#xd8;" horiz-adv-x="1370" d="M-68 70l197 198q-25 60 -37 128.5t-12 154.5q0 198 62 382.5t165 299.5q90 99 209 152t252 53q123 0 227 -42t168 -118l164 166l111 -109l-193 -196q24 -63 35.5 -135t11.5 -162q0 -182 -63.5 -358.5t-175.5 -305.5q-86 -100 -200 -151.5t-249 -51.5q-123 0 -220.5 39.5 t-168.5 118.5l-174 -176zM377 553q0 -31 0.5 -44.5t1.5 -22.5l577 589q-33 55 -87 85t-119 30q-158 0 -265.5 -181t-107.5 -456zM418 332q30 -54 80.5 -82.5t113.5 -28.5q98 0 176 67.5t132 198.5q37 92 57 191.5t20 191.5q0 11 -0.5 21.5t-3.5 33.5z" />
<glyph unicode="&#xd9;" horiz-adv-x="1493" d="M80 1188l74 158q20 42 56.5 59.5t104.5 17.5q108 0 175 -68.5t67 -178.5q0 -36 -4 -78.5t-12 -96.5l-80 -503q-6 -36 -9 -65t-3 -48q0 -73 39.5 -110t117.5 -37q142 0 240.5 79t120.5 213l108 684q5 30 7.5 58t2.5 53q0 29 -5.5 50t-18.5 38h393q-27 -30 -46 -81 t-30 -120l-129 -805q-5 -32 -7.5 -59t-2.5 -49q0 -56 23.5 -94t64.5 -49l-90 -119q-22 -30 -45.5 -42.5t-54.5 -12.5q-62 0 -110.5 46t-68.5 124q-69 -84 -171 -127t-228 -43q-197 0 -305.5 94.5t-108.5 267.5q0 40 5.5 94.5t17.5 128.5l76 476q3 20 4.5 35.5t1.5 25.5 q0 45 -27.5 68.5t-79.5 23.5q-17 0 -32.5 -2t-30.5 -6zM580 1911h221l186 -365h-118z" />
<glyph unicode="&#xda;" horiz-adv-x="1493" d="M80 1188l74 158q20 42 56.5 59.5t104.5 17.5q108 0 175 -68.5t67 -178.5q0 -36 -4 -78.5t-12 -96.5l-80 -503q-6 -36 -9 -65t-3 -48q0 -73 39.5 -110t117.5 -37q142 0 240.5 79t120.5 213l108 684q5 30 7.5 58t2.5 53q0 29 -5.5 50t-18.5 38h393q-27 -30 -46 -81 t-30 -120l-129 -805q-5 -32 -7.5 -59t-2.5 -49q0 -56 23.5 -94t64.5 -49l-90 -119q-22 -30 -45.5 -42.5t-54.5 -12.5q-62 0 -110.5 46t-68.5 124q-69 -84 -171 -127t-228 -43q-197 0 -305.5 94.5t-108.5 267.5q0 40 5.5 94.5t17.5 128.5l76 476q3 20 4.5 35.5t1.5 25.5 q0 45 -27.5 68.5t-79.5 23.5q-17 0 -32.5 -2t-30.5 -6zM678 1546l234 365h250l-355 -365h-129z" />
<glyph unicode="&#xdb;" horiz-adv-x="1493" d="M80 1188l74 158q20 42 56.5 59.5t104.5 17.5q108 0 175 -68.5t67 -178.5q0 -36 -4 -78.5t-12 -96.5l-80 -503q-6 -36 -9 -65t-3 -48q0 -73 39.5 -110t117.5 -37q142 0 240.5 79t120.5 213l108 684q5 30 7.5 58t2.5 53q0 29 -5.5 50t-18.5 38h393q-27 -30 -46 -81 t-30 -120l-129 -805q-5 -32 -7.5 -59t-2.5 -49q0 -56 23.5 -94t64.5 -49l-90 -119q-22 -30 -45.5 -42.5t-54.5 -12.5q-62 0 -110.5 46t-68.5 124q-69 -84 -171 -127t-228 -43q-197 0 -305.5 94.5t-108.5 267.5q0 40 5.5 94.5t17.5 128.5l76 476q3 20 4.5 35.5t1.5 25.5 q0 45 -27.5 68.5t-79.5 23.5q-17 0 -32.5 -2t-30.5 -6zM529 1546l266 365h205l139 -365h-117l-137 217l-227 -217h-129z" />
<glyph unicode="&#xdc;" horiz-adv-x="1493" d="M80 1188l74 158q20 42 56.5 59.5t104.5 17.5q108 0 175 -68.5t67 -178.5q0 -36 -4 -78.5t-12 -96.5l-80 -503q-6 -36 -9 -65t-3 -48q0 -73 39.5 -110t117.5 -37q142 0 240.5 79t120.5 213l108 684q5 30 7.5 58t2.5 53q0 29 -5.5 50t-18.5 38h393q-27 -30 -46 -81 t-30 -120l-129 -805q-5 -32 -7.5 -59t-2.5 -49q0 -56 23.5 -94t64.5 -49l-90 -119q-22 -30 -45.5 -42.5t-54.5 -12.5q-62 0 -110.5 46t-68.5 124q-69 -84 -171 -127t-228 -43q-197 0 -305.5 94.5t-108.5 267.5q0 40 5.5 94.5t17.5 128.5l76 476q3 20 4.5 35.5t1.5 25.5 q0 45 -27.5 68.5t-79.5 23.5q-17 0 -32.5 -2t-30.5 -6zM572 1712q0 55 40.5 94t98.5 39q51 0 83 -31t32 -81q0 -57 -39 -96.5t-94 -39.5q-54 0 -87.5 32.5t-33.5 82.5zM926 1712q0 55 40 94t97 39q52 0 83.5 -31t31.5 -81q0 -57 -38 -96.5t-93 -39.5q-54 0 -87.5 32.5 t-33.5 82.5z" />
<glyph unicode="&#xdd;" horiz-adv-x="1210" d="M25 1168l41 159q10 47 40 67.5t84 20.5q142 0 265.5 -120t206.5 -341q169 279 257.5 370t172.5 91h292q-288 -261 -450.5 -481t-188.5 -381l-57 -357q-3 -23 -4.5 -47.5t-1.5 -50.5q0 -29 5 -53t15 -45h-395q29 34 49.5 86t30.5 119l66 411q4 22 6 43.5t2 40.5 q0 68 -33.5 148t-99.5 170q-59 81 -118.5 120.5t-121.5 39.5q-20 0 -35.5 -2.5t-27.5 -7.5zM581 1546l234 365h250l-355 -365h-129z" />
<glyph unicode="&#xde;" horiz-adv-x="1133" d="M8 0q30 33 51 89.5t33 135.5l150 939q7 43 10.5 79t3.5 64q0 34 -6 59.5t-19 46.5h400q-29 -32 -49.5 -88t-32.5 -139q40 19 84.5 29t93.5 10q168 0 272.5 -103.5t104.5 -269.5q0 -221 -172 -361.5t-449 -140.5q-28 0 -41.5 0.5t-25.5 1.5l-31 -178q-3 -16 -4.5 -38.5 t-1.5 -49.5q0 -26 5 -47t15 -39h-391zM449 578h22q153 0 247.5 71.5t94.5 184.5q0 69 -36.5 107t-102.5 38q-41 0 -84.5 -17.5t-85.5 -50.5z" />
<glyph unicode="&#xdf;" horiz-adv-x="1231" d="M-23 0q31 36 52.5 90t31.5 123l156 983q25 157 120 237t255 80q181 0 293 -101t112 -263q0 -101 -42.5 -176.5t-129.5 -128.5q146 -74 218.5 -177.5t72.5 -238.5q0 -193 -122 -318.5t-310 -125.5q-114 0 -179 35.5t-65 97.5q0 7 3 27q1 8 1 12l25 145q40 -39 85 -59.5 t89 -20.5q82 0 133 61t51 160q0 121 -73 213.5t-219 155.5q102 55 160.5 140.5t58.5 178.5q0 75 -38 121.5t-98 46.5q-52 0 -86 -41t-47 -118l-147 -936q-4 -30 -6 -59t-2 -60q0 -25 3.5 -46t10.5 -38h-367z" />
<glyph unicode="&#xe0;" horiz-adv-x="1137" d="M39 365q0 116 32 219.5t95 189.5q79 109 186.5 170.5t218.5 61.5q69 0 121.5 -23t89.5 -70q17 37 40 54.5t55 17.5h180q-74 -158 -116 -337t-42 -333q0 -85 34.5 -125t106.5 -40h17q-12 -77 -58.5 -120.5t-115.5 -43.5q-71 0 -124 42t-79 117q-60 -80 -139.5 -121.5 t-171.5 -41.5q-148 0 -239 105t-91 278zM324 369q0 -76 26.5 -115t77.5 -39q36 0 73 26.5t70 75.5q42 64 71.5 165t29.5 182q0 48 -23 77t-61 29q-45 0 -89.5 -30t-82.5 -87q-44 -66 -68 -141.5t-24 -142.5zM395 1485h221l186 -365h-118z" />
<glyph unicode="&#xe1;" horiz-adv-x="1137" d="M39 365q0 116 32 219.5t95 189.5q79 109 186.5 170.5t218.5 61.5q69 0 121.5 -23t89.5 -70q17 37 40 54.5t55 17.5h180q-74 -158 -116 -337t-42 -333q0 -85 34.5 -125t106.5 -40h17q-12 -77 -58.5 -120.5t-115.5 -43.5q-71 0 -124 42t-79 117q-60 -80 -139.5 -121.5 t-171.5 -41.5q-148 0 -239 105t-91 278zM324 369q0 -76 26.5 -115t77.5 -39q36 0 73 26.5t70 75.5q42 64 71.5 165t29.5 182q0 48 -23 77t-61 29q-45 0 -89.5 -30t-82.5 -87q-44 -66 -68 -141.5t-24 -142.5zM493 1120l234 365h250l-355 -365h-129z" />
<glyph unicode="&#xe2;" horiz-adv-x="1137" d="M39 365q0 116 32 219.5t95 189.5q79 109 186.5 170.5t218.5 61.5q69 0 121.5 -23t89.5 -70q17 37 40 54.5t55 17.5h180q-74 -158 -116 -337t-42 -333q0 -85 34.5 -125t106.5 -40h17q-12 -77 -58.5 -120.5t-115.5 -43.5q-71 0 -124 42t-79 117q-60 -80 -139.5 -121.5 t-171.5 -41.5q-148 0 -239 105t-91 278zM324 369q0 -76 26.5 -115t77.5 -39q36 0 73 26.5t70 75.5q42 64 71.5 165t29.5 182q0 48 -23 77t-61 29q-45 0 -89.5 -30t-82.5 -87q-44 -66 -68 -141.5t-24 -142.5zM344 1120l266 365h205l139 -365h-117l-137 217l-227 -217h-129z " />
<glyph unicode="&#xe3;" horiz-adv-x="1137" d="M39 365q0 116 32 219.5t95 189.5q79 109 186.5 170.5t218.5 61.5q69 0 121.5 -23t89.5 -70q17 37 40 54.5t55 17.5h180q-74 -158 -116 -337t-42 -333q0 -85 34.5 -125t106.5 -40h17q-12 -77 -58.5 -120.5t-115.5 -43.5q-71 0 -124 42t-79 117q-60 -80 -139.5 -121.5 t-171.5 -41.5q-148 0 -239 105t-91 278zM324 369q0 -76 26.5 -115t77.5 -39q36 0 73 26.5t70 75.5q42 64 71.5 165t29.5 182q0 48 -23 77t-61 29q-45 0 -89.5 -30t-82.5 -87q-44 -66 -68 -141.5t-24 -142.5zM374 1157q31 117 85 175.5t133 58.5q19 0 41 -4t43 -11l69 -20 q21 -7 33.5 -9.5t23.5 -3.5q36 0 60.5 21.5t40.5 65.5h102q-33 -118 -86 -174t-131 -56q-15 0 -34 3.5t-46 10.5l-69 21q-21 6 -35.5 9t-24.5 3q-37 0 -62.5 -22t-39.5 -68h-103z" />
<glyph unicode="&#xe4;" horiz-adv-x="1137" d="M39 365q0 116 32 219.5t95 189.5q79 109 186.5 170.5t218.5 61.5q69 0 121.5 -23t89.5 -70q17 37 40 54.5t55 17.5h180q-74 -158 -116 -337t-42 -333q0 -85 34.5 -125t106.5 -40h17q-12 -77 -58.5 -120.5t-115.5 -43.5q-71 0 -124 42t-79 117q-60 -80 -139.5 -121.5 t-171.5 -41.5q-148 0 -239 105t-91 278zM324 369q0 -76 26.5 -115t77.5 -39q36 0 73 26.5t70 75.5q42 64 71.5 165t29.5 182q0 48 -23 77t-61 29q-45 0 -89.5 -30t-82.5 -87q-44 -66 -68 -141.5t-24 -142.5zM387 1286q0 55 40.5 94t98.5 39q51 0 83 -31t32 -81 q0 -57 -39 -96.5t-94 -39.5q-54 0 -87.5 32.5t-33.5 82.5zM741 1286q0 55 40 94t97 39q52 0 83.5 -31t31.5 -81q0 -57 -38 -96.5t-93 -39.5q-54 0 -87.5 32.5t-33.5 82.5z" />
<glyph unicode="&#xe5;" horiz-adv-x="1137" d="M39 365q0 116 32 219.5t95 189.5q79 109 187 170.5t220 61.5q68 0 120 -23.5t89 -69.5q17 37 40 54.5t55 17.5h180q-74 -158 -116 -337t-42 -333q0 -85 34.5 -125t106.5 -40h17q-12 -77 -58.5 -120.5t-115.5 -43.5q-71 0 -124 42t-79 117q-60 -80 -139.5 -121.5 t-171.5 -41.5q-148 0 -239 105t-91 278zM324 369q0 -76 26.5 -115t77.5 -39q36 0 73 26t68 74q43 65 73 166.5t30 182.5q0 48 -23 77t-61 29q-45 0 -89.5 -30t-82.5 -87q-44 -66 -68 -141.5t-24 -142.5zM446 1335q0 111 76.5 184.5t192.5 73.5q101 0 175.5 -76t74.5 -182 q0 -109 -75.5 -184.5t-184.5 -75.5t-184 75.5t-75 184.5zM571 1333q0 -56 39 -94.5t97 -38.5q56 0 94.5 38t38.5 95t-39 96t-94 39q-57 0 -96.5 -39t-39.5 -96z" />
<glyph unicode="&#xe6;" horiz-adv-x="1456" d="M8 264q0 161 138.5 248.5t392.5 87.5q9 0 27.5 -1t29.5 -1l12 67q1 4 1.5 9.5t0.5 15.5q0 54 -45.5 82.5t-132.5 28.5q-90 0 -161 -26t-124 -79l-24 150q0 3 -1 8.5t-1 7.5q0 68 89 106t251 38q117 0 195.5 -37t111.5 -107q77 72 165 108t189 36q123 0 195 -59.5 t72 -160.5q0 -155 -154 -263t-401 -120v-12q0 -75 50.5 -120.5t135.5 -45.5q62 0 131 30t145 89l-24 -158q-14 -98 -103.5 -151t-238.5 -53q-94 0 -169.5 37t-123.5 106q-57 -72 -132.5 -107.5t-172.5 -35.5q-146 0 -235 78t-89 204zM289 295q0 -40 26 -67t64 -27 q80 0 124 36.5t56 114.5l16 105q-133 -3 -209.5 -46.5t-76.5 -115.5zM858 571q128 13 211.5 70.5t83.5 126.5q0 28 -16 43.5t-43 15.5q-71 0 -135.5 -69t-100.5 -187z" />
<glyph unicode="&#xe7;" horiz-adv-x="965" d="M31 377q0 131 49 251t141 214q78 79 178.5 121.5t210.5 42.5q131 0 212 -66t81 -170q0 -97 -82.5 -171.5t-189.5 -74.5q-41 0 -58.5 14t-17.5 46v16l9 90q4 -1 8 -1.5t12 -0.5q37 0 61.5 21t24.5 53q0 26 -18.5 40.5t-49.5 14.5q-32 0 -67.5 -19t-69.5 -55 q-65 -68 -104 -165t-39 -191q0 -83 43.5 -128.5t121.5 -45.5t157 33.5t157 99.5l-25 -168q0 -2 -1 -6q-10 -64 -36 -90q-43 -46 -128 -76.5t-177 -30.5q-192 0 -297.5 105.5t-105.5 296.5zM94 -430l43 111q64 -24 121 -36t104 -12q54 0 84.5 23.5t30.5 64.5q0 42 -36 59 t-128 17h-41l70 203h96l-35 -98h8q107 0 163 -43t56 -125q0 -101 -66.5 -158t-184.5 -57q-58 0 -129.5 12.5t-155.5 38.5z" />
<glyph unicode="&#xe8;" horiz-adv-x="926" d="M37 397q0 149 69 285t191 227q65 50 144 76.5t161 26.5q114 0 186 -65.5t72 -168.5q0 -153 -148.5 -257.5t-392.5 -119.5q0 -84 45 -131t125 -47q68 0 140.5 30t144.5 87l-22 -133q-19 -114 -102 -170.5t-230 -56.5q-178 0 -280.5 111.5t-102.5 305.5zM315 1485h221 l186 -365h-118zM330 557q128 14 214.5 77t86.5 136q0 27 -17.5 45.5t-42.5 18.5q-71 0 -140 -77.5t-101 -199.5z" />
<glyph unicode="&#xe9;" horiz-adv-x="926" d="M37 397q0 149 69 285t191 227q65 50 144 76.5t161 26.5q114 0 186 -65.5t72 -168.5q0 -153 -148.5 -257.5t-392.5 -119.5q0 -84 45 -131t125 -47q68 0 140.5 30t144.5 87l-22 -133q-19 -114 -102 -170.5t-230 -56.5q-178 0 -280.5 111.5t-102.5 305.5zM330 557 q128 14 214.5 77t86.5 136q0 27 -17.5 45.5t-42.5 18.5q-71 0 -140 -77.5t-101 -199.5zM413 1120l234 365h250l-355 -365h-129z" />
<glyph unicode="&#xea;" horiz-adv-x="926" d="M37 397q0 149 69 285t191 227q65 50 144 76.5t161 26.5q114 0 186 -65.5t72 -168.5q0 -153 -148.5 -257.5t-392.5 -119.5q0 -84 45 -131t125 -47q68 0 140.5 30t144.5 87l-22 -133q-19 -114 -102 -170.5t-230 -56.5q-178 0 -280.5 111.5t-102.5 305.5zM264 1120l266 365 h205l139 -365h-117l-137 217l-227 -217h-129zM330 557q128 14 214.5 77t86.5 136q0 27 -17.5 45.5t-42.5 18.5q-71 0 -140 -77.5t-101 -199.5z" />
<glyph unicode="&#xeb;" horiz-adv-x="926" d="M37 397q0 149 69 285t191 227q65 50 144 76.5t161 26.5q114 0 186 -65.5t72 -168.5q0 -153 -148.5 -257.5t-392.5 -119.5q0 -84 45 -131t125 -47q68 0 140.5 30t144.5 87l-22 -133q-19 -114 -102 -170.5t-230 -56.5q-178 0 -280.5 111.5t-102.5 305.5zM307 1286 q0 55 40.5 94t98.5 39q51 0 83 -31t32 -81q0 -57 -39 -96.5t-94 -39.5q-54 0 -87.5 32.5t-33.5 82.5zM330 557q128 14 214.5 77t86.5 136q0 27 -17.5 45.5t-42.5 18.5q-71 0 -140 -77.5t-101 -199.5zM661 1286q0 55 40 94t97 39q52 0 83.5 -31t31.5 -81q0 -57 -38 -96.5 t-93 -39.5q-54 0 -87.5 32.5t-33.5 82.5z" />
<glyph unicode="&#xec;" horiz-adv-x="596" d="M72 242q0 22 3 50t9 64l70 449q3 23 4.5 41.5t1.5 36.5q0 22 -2 42t-6 38l321 49l-102 -654q-7 -41 -9 -57t-2 -27q0 -48 25 -74t72 -26q29 0 42.5 1t24.5 3l-57 -119q-22 -45 -52.5 -62t-88.5 -17q-118 0 -186 70t-68 192zM125 1485h221l186 -365h-118z" />
<glyph unicode="&#xed;" horiz-adv-x="596" d="M72 242q0 22 3 50t9 64l70 449q3 23 4.5 41.5t1.5 36.5q0 22 -2 42t-6 38l321 49l-102 -654q-7 -41 -9 -57t-2 -27q0 -48 25 -74t72 -26q29 0 42.5 1t24.5 3l-57 -119q-22 -45 -52.5 -62t-88.5 -17q-118 0 -186 70t-68 192zM223 1120l234 365h250l-355 -365h-129z" />
<glyph unicode="&#xee;" horiz-adv-x="596" d="M72 242q0 22 3 50t9 64l70 449q3 23 4.5 41.5t1.5 36.5q0 22 -2 42t-6 38l321 49l-102 -654q-7 -41 -9 -57t-2 -27q0 -48 25 -74t72 -26q29 0 42.5 1t24.5 3l-57 -119q-22 -45 -52.5 -62t-88.5 -17q-118 0 -186 70t-68 192zM74 1120l266 365h205l139 -365h-117l-137 217 l-227 -217h-129z" />
<glyph unicode="&#xef;" horiz-adv-x="596" d="M72 242q0 22 3 50t9 64l70 449q3 23 4.5 41.5t1.5 36.5q0 22 -2 42t-6 38l321 49l-102 -654q-7 -41 -9 -57t-2 -27q0 -48 25 -74t72 -26q29 0 42.5 1t24.5 3l-57 -119q-22 -45 -52.5 -62t-88.5 -17q-118 0 -186 70t-68 192zM117 1286q0 55 40.5 94t98.5 39q51 0 83 -31 t32 -81q0 -57 -39 -96.5t-94 -39.5q-54 0 -87.5 32.5t-33.5 82.5zM471 1286q0 55 40 94t97 39q52 0 83.5 -31t31.5 -81q0 -57 -38 -96.5t-93 -39.5q-54 0 -87.5 32.5t-33.5 82.5z" />
<glyph unicode="&#xf0;" horiz-adv-x="1083" d="M37 408q0 258 150.5 427t379.5 169q26 0 51 -3.5t48 -9.5q-10 52 -23 99t-31 94l-260 -90l-37 110l254 90q-16 43 -35.5 86t-41.5 84l131 70l74 -114q24 -39 40 -68l264 90l41 -113l-251 -88q92 -196 138 -355t46 -284q0 -279 -149 -453t-384 -174q-184 0 -294.5 117.5 t-110.5 315.5zM322 373q0 -81 36 -126.5t101 -45.5q98 0 167.5 118t69.5 291q0 85 -34.5 130.5t-98.5 45.5q-100 0 -170.5 -119.5t-70.5 -293.5z" />
<glyph unicode="&#xf1;" horiz-adv-x="1130" d="M1 815l65 133q11 26 50 43t89 17q68 0 115.5 -31t76.5 -94q68 62 150 93.5t174 31.5q123 0 192.5 -57.5t69.5 -159.5q0 -27 -7 -86l-1 -7l-62 -391v-6q-4 -31 -4 -41q0 -45 25.5 -67.5t77.5 -22.5q13 0 28.5 1.5t34.5 4.5l-55 -127q-16 -36 -48.5 -54t-82.5 -18 q-120 0 -190 66t-70 178q0 19 1.5 37.5t4.5 38.5l63 395q1 3 1.5 9.5t0.5 23.5q0 25 -17 39t-48 14q-76 0 -139 -56t-76 -140l-92 -582h-277l109 682q2 14 3 25t1 20q0 49 -26 73.5t-79 24.5q-11 0 -25.5 -2.5t-32.5 -7.5zM344 1157q31 117 85 175.5t133 58.5q19 0 41 -4 t43 -11l69 -20q21 -7 33.5 -9.5t23.5 -3.5q36 0 60.5 21.5t40.5 65.5h102q-33 -118 -86 -174t-131 -56q-15 0 -34 3.5t-46 10.5l-69 21q-21 6 -35.5 9t-24.5 3q-37 0 -62.5 -22t-39.5 -68h-103z" />
<glyph unicode="&#xf2;" horiz-adv-x="1083" d="M37 410q0 125 43 239t121 199q75 81 170.5 121.5t214.5 40.5q183 0 288 -114t105 -314q0 -266 -153.5 -436.5t-393.5 -170.5q-177 0 -286 119.5t-109 315.5zM322 373q0 -81 36 -126.5t101 -45.5q98 0 167.5 118t69.5 291q0 85 -34.5 130.5t-98.5 45.5 q-100 0 -170.5 -119.5t-70.5 -293.5zM369 1485h221l186 -365h-118z" />
<glyph unicode="&#xf3;" horiz-adv-x="1083" d="M37 410q0 125 43 239t121 199q75 81 170.5 121.5t214.5 40.5q183 0 288 -114t105 -314q0 -266 -153.5 -436.5t-393.5 -170.5q-177 0 -286 119.5t-109 315.5zM322 373q0 -81 36 -126.5t101 -45.5q98 0 167.5 118t69.5 291q0 85 -34.5 130.5t-98.5 45.5 q-100 0 -170.5 -119.5t-70.5 -293.5zM467 1120l234 365h250l-355 -365h-129z" />
<glyph unicode="&#xf4;" horiz-adv-x="1083" d="M37 410q0 125 43 239t121 199q75 81 170.5 121.5t214.5 40.5q183 0 288 -114t105 -314q0 -266 -153.5 -436.5t-393.5 -170.5q-177 0 -286 119.5t-109 315.5zM318 1120l266 365h205l139 -365h-117l-137 217l-227 -217h-129zM322 373q0 -81 36 -126.5t101 -45.5 q98 0 167.5 118t69.5 291q0 85 -34.5 130.5t-98.5 45.5q-100 0 -170.5 -119.5t-70.5 -293.5z" />
<glyph unicode="&#xf5;" horiz-adv-x="1083" d="M37 410q0 125 43 239t121 199q75 81 170.5 121.5t214.5 40.5q183 0 288 -114t105 -314q0 -266 -153.5 -436.5t-393.5 -170.5q-177 0 -286 119.5t-109 315.5zM322 373q0 -81 36 -126.5t101 -45.5q98 0 167.5 118t69.5 291q0 85 -34.5 130.5t-98.5 45.5 q-100 0 -170.5 -119.5t-70.5 -293.5zM348 1157q31 117 85 175.5t133 58.5q19 0 41 -4t43 -11l69 -20q21 -7 33.5 -9.5t23.5 -3.5q36 0 60.5 21.5t40.5 65.5h102q-33 -118 -86 -174t-131 -56q-15 0 -34 3.5t-46 10.5l-69 21q-21 6 -35.5 9t-24.5 3q-37 0 -62.5 -22t-39.5 -68 h-103z" />
<glyph unicode="&#xf6;" horiz-adv-x="1083" d="M37 410q0 125 43 239t121 199q75 81 170.5 121.5t214.5 40.5q183 0 288 -114t105 -314q0 -266 -153.5 -436.5t-393.5 -170.5q-177 0 -286 119.5t-109 315.5zM322 373q0 -81 36 -126.5t101 -45.5q98 0 167.5 118t69.5 291q0 85 -34.5 130.5t-98.5 45.5 q-100 0 -170.5 -119.5t-70.5 -293.5zM361 1286q0 55 40.5 94t98.5 39q51 0 83 -31t32 -81q0 -57 -39 -96.5t-94 -39.5q-54 0 -87.5 32.5t-33.5 82.5zM715 1286q0 55 40 94t97 39q52 0 83.5 -31t31.5 -81q0 -57 -38 -96.5t-93 -39.5q-54 0 -87.5 32.5t-33.5 82.5z" />
<glyph unicode="&#xf7;" horiz-adv-x="1706" d="M254 512v199h1198v-199h-1198zM702 217q0 63 44.5 107.5t107.5 44.5q62 0 107 -45t45 -107q0 -61 -45 -105t-107 -44q-63 0 -107.5 43t-44.5 106zM702 1004q0 63 44.5 107t107.5 44q62 0 107 -44.5t45 -106.5q0 -63 -44.5 -107.5t-107.5 -44.5t-107.5 44.5t-44.5 107.5z " />
<glyph unicode="&#xf8;" horiz-adv-x="1083" d="M-68 31l152 149q-23 42 -34 94t-11 119q0 269 152.5 443t386.5 174q82 0 149.5 -22t122.5 -66l139 135l84 -96l-143 -142q25 -46 37 -100t12 -121q0 -271 -152 -447t-385 -176q-81 0 -152 25.5t-128 75.5l-146 -142zM315 360l361 385q-17 27 -47.5 41.5t-69.5 14.5 q-102 0 -173 -125t-71 -316zM344 244q17 -27 46.5 -42.5t64.5 -15.5q105 0 172.5 119t72.5 320z" />
<glyph unicode="&#xf9;" horiz-adv-x="1135" d="M41 811l57 129q16 34 41.5 49t69.5 15q101 0 162 -66.5t61 -175.5q0 -20 -3.5 -54.5t-10.5 -80.5l-51 -332q-1 -2 -1 -6q-3 -26 -4 -37q0 -30 14.5 -43.5t45.5 -13.5q98 0 156 73.5t84 233.5l47 297q3 21 4.5 42t1.5 40q0 13 -2 30.5t-6 44.5l311 48l-103 -650 q-5 -34 -7.5 -54.5t-2.5 -35.5q0 -45 24 -69.5t66 -24.5q19 0 36.5 2t35.5 6l-45 -110q-20 -45 -55.5 -64.5t-98.5 -19.5q-72 0 -125 30.5t-84 89.5q-57 -57 -140 -88.5t-177 -31.5q-128 0 -193 58t-65 173q0 20 3 48.5t11 88.5l51 327q3 19 4 27.5t1 14.5q0 46 -23.5 68 t-73.5 22h-16zM342 1485h221l186 -365h-118z" />
<glyph unicode="&#xfa;" horiz-adv-x="1135" d="M41 811l57 129q16 34 41.5 49t69.5 15q101 0 162 -66.5t61 -175.5q0 -20 -3.5 -54.5t-10.5 -80.5l-51 -332q-1 -2 -1 -6q-3 -26 -4 -37q0 -30 14.5 -43.5t45.5 -13.5q98 0 156 73.5t84 233.5l47 297q3 21 4.5 42t1.5 40q0 13 -2 30.5t-6 44.5l311 48l-103 -650 q-5 -34 -7.5 -54.5t-2.5 -35.5q0 -45 24 -69.5t66 -24.5q19 0 36.5 2t35.5 6l-45 -110q-20 -45 -55.5 -64.5t-98.5 -19.5q-72 0 -125 30.5t-84 89.5q-57 -57 -140 -88.5t-177 -31.5q-128 0 -193 58t-65 173q0 20 3 48.5t11 88.5l51 327q3 19 4 27.5t1 14.5q0 46 -23.5 68 t-73.5 22h-16zM440 1120l234 365h250l-355 -365h-129z" />
<glyph unicode="&#xfb;" horiz-adv-x="1135" d="M41 811l57 129q16 34 41.5 49t69.5 15q101 0 162 -66.5t61 -175.5q0 -20 -3.5 -54.5t-10.5 -80.5l-51 -332q-1 -2 -1 -6q-3 -26 -4 -37q0 -30 14.5 -43.5t45.5 -13.5q98 0 156 73.5t84 233.5l47 297q3 21 4.5 42t1.5 40q0 13 -2 30.5t-6 44.5l311 48l-103 -650 q-5 -34 -7.5 -54.5t-2.5 -35.5q0 -45 24 -69.5t66 -24.5q19 0 36.5 2t35.5 6l-45 -110q-20 -45 -55.5 -64.5t-98.5 -19.5q-72 0 -125 30.5t-84 89.5q-57 -57 -140 -88.5t-177 -31.5q-128 0 -193 58t-65 173q0 20 3 48.5t11 88.5l51 327q3 19 4 27.5t1 14.5q0 46 -23.5 68 t-73.5 22h-16zM291 1120l266 365h205l139 -365h-117l-137 217l-227 -217h-129z" />
<glyph unicode="&#xfc;" horiz-adv-x="1135" d="M41 811l57 129q16 34 41.5 49t69.5 15q101 0 162 -66.5t61 -175.5q0 -20 -3.5 -54.5t-10.5 -80.5l-51 -332q-1 -2 -1 -6q-3 -26 -4 -37q0 -30 14.5 -43.5t45.5 -13.5q98 0 156 73.5t84 233.5l47 297q3 21 4.5 42t1.5 40q0 13 -2 30.5t-6 44.5l311 48l-103 -650 q-5 -34 -7.5 -54.5t-2.5 -35.5q0 -45 24 -69.5t66 -24.5q19 0 36.5 2t35.5 6l-45 -110q-20 -45 -55.5 -64.5t-98.5 -19.5q-72 0 -125 30.5t-84 89.5q-57 -57 -140 -88.5t-177 -31.5q-128 0 -193 58t-65 173q0 20 3 48.5t11 88.5l51 327q3 19 4 27.5t1 14.5q0 46 -23.5 68 t-73.5 22h-16zM334 1286q0 55 40.5 94t98.5 39q51 0 83 -31t32 -81q0 -57 -39 -96.5t-94 -39.5q-54 0 -87.5 32.5t-33.5 82.5zM688 1286q0 55 40 94t97 39q52 0 83.5 -31t31.5 -81q0 -57 -38 -96.5t-93 -39.5q-54 0 -87.5 32.5t-33.5 82.5z" />
<glyph unicode="&#xfd;" horiz-adv-x="1026" d="M-100 -395q189 192 291 347.5t102 252.5q0 23 -7 61t-24 109q-21 86 -56 170.5t-79 154.5q-32 51 -70 78.5t-83 33.5l102 130q18 25 37.5 36t42.5 11q103 0 195 -164t141 -442l104 238q47 106 70.5 193t23.5 155v16h311q-54 -216 -188.5 -490.5t-323.5 -553.5 q-115 -174 -156.5 -228.5t-68.5 -77.5q-19 -16 -45.5 -23t-71.5 -7h-247zM438 1120l234 365h250l-355 -365h-129z" />
<glyph unicode="&#xfe;" horiz-adv-x="1120" d="M-74 -389q35 41 55.5 91.5t34.5 145.5l228 1444l9 67q3 28 3 38q0 11 -2.5 27t-7.5 42l311 50l-92 -582q50 37 101.5 55.5t107.5 18.5q164 0 255 -101.5t91 -283.5q0 -105 -28.5 -206.5t-82.5 -187.5q-78 -124 -183.5 -188t-231.5 -64q-52 0 -95.5 16t-74.5 46l-31 -195 q-8 -58 -11 -88t-3 -51q0 -25 4.5 -49t13.5 -45h-371zM375 315q0 -50 27.5 -79t76.5 -29q89 0 168.5 125t79.5 282q0 81 -28.5 122.5t-84.5 41.5q-99 0 -169 -132.5t-70 -330.5z" />
<glyph unicode="&#xff;" horiz-adv-x="1026" d="M-100 -395q189 192 291 347.5t102 252.5q0 23 -7 61t-24 109q-21 86 -56 170.5t-79 154.5q-32 51 -70 78.5t-83 33.5l102 130q18 25 37.5 36t42.5 11q103 0 195 -164t141 -442l104 238q47 106 70.5 193t23.5 155v16h311q-54 -216 -188.5 -490.5t-323.5 -553.5 q-115 -174 -156.5 -228.5t-68.5 -77.5q-19 -16 -45.5 -23t-71.5 -7h-247zM332 1286q0 55 40.5 94t98.5 39q51 0 83 -31t32 -81q0 -57 -39 -96.5t-94 -39.5q-54 0 -87.5 32.5t-33.5 82.5zM686 1286q0 55 40 94t97 39q52 0 83.5 -31t31.5 -81q0 -57 -38 -96.5t-93 -39.5 q-54 0 -87.5 32.5t-33.5 82.5z" />
<glyph unicode="&#x152;" horiz-adv-x="1686" d="M80 573q0 197 60.5 371t166.5 289q94 100 212.5 147t277.5 47q26 0 174.5 -9t269.5 -9q78 0 170.5 1t106.5 1q99 0 127 -20t28 -78q0 -15 -0.5 -23t-1.5 -15l-18 -147q-50 20 -119 29.5t-154 9.5q-40 0 -133 -7q-8 -1 -12 -1l-45 -285h166q50 0 90.5 7t73.5 20l-47 -305 q-27 15 -60.5 22t-77.5 7h-186l-57 -373q28 -3 57 -4.5t76 -1.5q134 0 214 8t134 27l-57 -181q-19 -59 -53 -80.5t-113 -21.5q-16 0 -133.5 5t-219.5 5q-79 0 -210.5 -10t-184.5 -10q-261 0 -391.5 146t-130.5 439zM375 530q0 -142 56.5 -222.5t156.5 -80.5q66 0 123 22 t104 66l125 779q-38 47 -88.5 71.5t-110.5 24.5q-70 0 -128.5 -37.5t-110.5 -116.5q-56 -85 -91.5 -224t-35.5 -282z" />
<glyph unicode="&#x153;" horiz-adv-x="1542" d="M37 408q0 259 151 429.5t381 170.5q100 0 176 -32.5t136 -98.5q81 66 165 98.5t173 32.5q121 0 193.5 -61t72.5 -163q0 -154 -151.5 -261t-397.5 -122v-14q0 -76 47.5 -119t132.5 -43q62 0 133.5 30t141.5 85l-23 -133q-19 -119 -99.5 -173t-236.5 -54q-85 0 -158 29.5 t-118 82.5q-61 -56 -139.5 -84t-176.5 -28q-188 0 -295.5 114t-107.5 314zM322 381q0 -89 35.5 -135.5t103.5 -46.5q96 0 165.5 120.5t69.5 292.5q0 84 -34.5 129t-98.5 45q-101 0 -171 -117t-70 -288zM961 569q123 14 204.5 73.5t81.5 129.5q0 27 -16.5 42t-46.5 15 q-64 0 -127.5 -72.5t-95.5 -187.5z" />
<glyph unicode="&#x178;" horiz-adv-x="1210" d="M25 1168l41 159q10 47 40 67.5t84 20.5q142 0 265.5 -120t206.5 -341q169 279 257.5 370t172.5 91h292q-288 -261 -450.5 -481t-188.5 -381l-57 -357q-3 -23 -4.5 -47.5t-1.5 -50.5q0 -29 5 -53t15 -45h-395q29 34 49.5 86t30.5 119l66 411q4 22 6 43.5t2 40.5 q0 68 -33.5 148t-99.5 170q-59 81 -118.5 120.5t-121.5 39.5q-20 0 -35.5 -2.5t-27.5 -7.5zM475 1712q0 55 40.5 94t98.5 39q51 0 83 -31t32 -81q0 -57 -39 -96.5t-94 -39.5q-54 0 -87.5 32.5t-33.5 82.5zM829 1712q0 55 40 94t97 39q52 0 83.5 -31t31.5 -81 q0 -57 -38 -96.5t-93 -39.5q-54 0 -87.5 32.5t-33.5 82.5z" />
<glyph unicode="&#x2c6;" horiz-adv-x="1024" d="M287 1120l266 365h205l139 -365h-117l-137 217l-227 -217h-129z" />
<glyph unicode="&#x2dc;" horiz-adv-x="1024" d="M317 1157q31 117 85 175.5t133 58.5q19 0 41 -4t43 -11l69 -20q21 -7 33.5 -9.5t23.5 -3.5q36 0 60.5 21.5t40.5 65.5h102q-33 -118 -86 -174t-131 -56q-15 0 -34 3.5t-46 10.5l-69 21q-21 6 -35.5 9t-24.5 3q-37 0 -62.5 -22t-39.5 -68h-103z" />
<glyph unicode="&#x2013;" horiz-adv-x="1024" d="M-33 446l27 177h997l-28 -177h-996z" />
<glyph unicode="&#x2014;" horiz-adv-x="2048" d="M-47 446l27 177h2048l-27 -177h-2048z" />
<glyph unicode="&#x2018;" horiz-adv-x="567" d="M139 1133q0 126 123 234t313 140l11 -32q-75 -29 -128 -77t-81 -112q47 -18 71.5 -53.5t24.5 -85.5q0 -75 -50.5 -125.5t-125.5 -50.5q-71 0 -114.5 44.5t-43.5 117.5z" />
<glyph unicode="&#x2019;" horiz-adv-x="567" d="M104 934q74 29 127 77t82 111q-47 19 -72.5 54.5t-25.5 85.5q0 74 51.5 125t126.5 51q71 0 114.5 -45t43.5 -117q0 -127 -122.5 -234.5t-313.5 -140.5z" />
<glyph unicode="&#x201a;" horiz-adv-x="567" d="M-33 -205q73 29 126.5 77t82.5 112q-47 18 -71.5 53.5t-24.5 85.5q0 74 50.5 125t125.5 51q70 0 114 -45.5t44 -118.5q0 -126 -122 -232t-315 -141z" />
<glyph unicode="&#x201c;" horiz-adv-x="1032" d="M137 1133q0 125 123.5 233.5t314.5 140.5l9 -32q-74 -29 -126.5 -77t-80.5 -112q47 -18 71.5 -53.5t24.5 -85.5q0 -75 -50.5 -125.5t-125.5 -50.5q-71 0 -115.5 45t-44.5 117zM602 1133q0 125 123.5 233.5t314.5 140.5l9 -32q-74 -29 -126.5 -77t-80.5 -112 q47 -18 71.5 -53.5t24.5 -85.5q0 -75 -51 -125.5t-125 -50.5q-71 0 -115.5 45t-44.5 117z" />
<glyph unicode="&#x201d;" horiz-adv-x="1032" d="M104 934q74 29 127 77t82 111q-47 19 -72.5 54.5t-25.5 85.5q0 74 51.5 125t126.5 51q71 0 114.5 -45t43.5 -117q0 -127 -122.5 -234.5t-313.5 -140.5zM569 934q73 28 125 76t82 112q-47 19 -71.5 54.5t-24.5 85.5q0 74 50.5 125t125.5 51q71 0 115.5 -45t44.5 -117 q0 -127 -123.5 -234.5t-314.5 -140.5z" />
<glyph unicode="&#x201e;" horiz-adv-x="1032" d="M-33 -205q73 29 126.5 77t82.5 112q-47 18 -71.5 53.5t-24.5 85.5q0 74 50.5 125t125.5 51q70 0 114 -45.5t44 -118.5q0 -126 -122 -232t-315 -141zM432 -205q73 29 126.5 77t82.5 112q-47 18 -71.5 53.5t-24.5 85.5q0 74 50.5 125t125.5 51q70 0 115 -46t45 -118 q0 -126 -123 -232t-316 -141z" />
<glyph unicode="&#x2022;" horiz-adv-x="1208" d="M307 762q0 123 87 209t210 86q122 0 208.5 -86.5t86.5 -208.5t-87.5 -209.5t-209.5 -87.5q-123 0 -209 87t-86 210z" />
<glyph unicode="&#x2026;" horiz-adv-x="2048" d="M131 133q0 75 52 126.5t128 51.5q67 0 109.5 -41t42.5 -106q0 -74 -50.5 -126t-122.5 -52t-115.5 40t-43.5 107zM813 133q0 75 52 126.5t128 51.5q67 0 109.5 -41t42.5 -106q0 -74 -50.5 -126t-122.5 -52t-115.5 40t-43.5 107zM1497 133q0 75 52 126.5t128 51.5 q67 0 109.5 -41t42.5 -106q0 -74 -50.5 -126t-122.5 -52t-115.5 40t-43.5 107z" />
<glyph unicode="&#x2039;" horiz-adv-x="739" d="M45 537q123 61 226 142.5t188 184.5h190q-44 -114 -110.5 -198.5t-155.5 -139.5q64 -70 109.5 -150t70.5 -165h-198q-71 108 -150 188t-170 138z" />
<glyph unicode="&#x203a;" horiz-adv-x="739" d="M43 211q44 117 111.5 202.5t154.5 137.5q-63 69 -108 148t-70 165h199q71 -109 149.5 -188.5t169.5 -134.5q-124 -64 -227 -146t-186 -184h-193z" />
<glyph unicode="&#x2122;" horiz-adv-x="1706" d="M207 1350v112h485v-112h-168v-435h-149v435h-168zM803 915v547h196l127 -332l123 332h197v-547h-135v410l-154 -410h-61l-158 410v-410h-135z" />
<glyph unicode="&#xe000;" horiz-adv-x="1000" d="M0 1000h1000v-1000h-1000v1000z" />
<glyph unicode="&#xfb01;" horiz-adv-x="1262" d="M-143 -389q84 84 142.5 224.5t88.5 332.5l94 594h-32q-29 0 -50.5 -2t-38.5 -6l23 151q6 46 25 64t59 18h49l39 240q22 138 109 211t231 73q81 0 126.5 -25t45.5 -69q0 -10 -3.5 -23t-10.5 -32l-47 -109q-22 16 -43 23.5t-41 7.5q-40 0 -65.5 -31.5t-35.5 -93.5l-28 -172 q10 -1 20 -1.5t29 -0.5q27 0 47 2t37 6l-17 -119q-10 -68 -30.5 -90t-67.5 -22h-53l-88 -565q-47 -297 -114 -441.5t-159 -144.5h-241zM738 242q0 22 3 50t9 64l70 449q3 23 4.5 41.5t1.5 36.5q0 22 -2 42t-6 38l321 49l-102 -654q-7 -41 -9 -57t-2 -27q0 -48 25 -74t72 -26 q29 0 42.5 1t24.5 3l-57 -119q-22 -45 -52.5 -62t-88.5 -17q-118 0 -186 70t-68 192zM908 1300q0 69 50 116.5t124 47.5q64 0 104.5 -38.5t40.5 -98.5q0 -68 -49 -116t-119 -48q-69 0 -110 37.5t-41 99.5z" />
<glyph unicode="&#xfb02;" horiz-adv-x="1266" d="M-143 -389q84 84 142.5 224.5t88.5 332.5l94 594h-32q-29 0 -50.5 -2t-38.5 -6l23 151q6 46 25 64t59 18h49l39 240q22 138 109 211t231 73q81 0 126.5 -25t45.5 -69q0 -10 -3.5 -23t-10.5 -32l-47 -109q-22 16 -43 23.5t-41 7.5q-40 0 -65.5 -31.5t-35.5 -93.5l-28 -172 q10 -1 20 -1.5t29 -0.5q27 0 47 2t37 6l-17 -119q-10 -68 -30.5 -90t-67.5 -22h-53l-88 -565q-47 -297 -114 -441.5t-159 -144.5h-241zM736 221q0 25 3.5 59.5t14.5 110.5l141 901q6 37 9.5 63t3.5 40q0 15 -2 33t-7 38l320 50l-180 -1133q-6 -36 -9.5 -63.5t-3.5 -45.5 q0 -51 24 -76.5t71 -25.5q10 0 25.5 1.5t37.5 4.5l-51 -121q-18 -42 -49.5 -59.5t-91.5 -17.5q-125 0 -190.5 61.5t-65.5 179.5z" />
<glyph unicode="&#xfb03;" horiz-adv-x="1928" d="M-143 -389q84 84 142.5 224.5t88.5 332.5l94 594h-32q-29 0 -50.5 -2t-38.5 -6l23 151q6 46 25 64t59 18h49l39 240q22 138 109 211t231 73q81 0 126.5 -25t45.5 -69q0 -10 -3.5 -23t-10.5 -32l-47 -109q-22 16 -43 23.5t-41 7.5q-40 0 -65.5 -31.5t-35.5 -93.5l-28 -172 q10 -1 20 -1.5t29 -0.5q27 0 47 2t37 6l-17 -119q-10 -68 -30.5 -90t-67.5 -22h-53l-88 -565q-47 -297 -114 -441.5t-159 -144.5h-241zM523 -389q84 84 142.5 224.5t88.5 332.5l94 594h-32q-29 0 -50.5 -2t-38.5 -6l23 151q6 46 25 64t59 18h49l39 240q22 138 109 211 t231 73q81 0 126.5 -25t45.5 -69q0 -10 -3.5 -23t-10.5 -32l-47 -109q-22 16 -43 23.5t-41 7.5q-40 0 -65.5 -31.5t-35.5 -93.5l-28 -172q10 -1 20 -1.5t29 -0.5q27 0 47 2t37 6l-17 -119q-10 -68 -30.5 -90t-67.5 -22h-53l-88 -565q-47 -297 -114 -441.5t-159 -144.5h-241z M1404 242q0 22 3 50t9 64l70 449q3 23 4.5 41.5t1.5 36.5q0 22 -2 42t-6 38l321 49l-102 -654q-7 -41 -9 -57t-2 -27q0 -48 25 -74t72 -26q29 0 42.5 1t24.5 3l-57 -119q-22 -45 -52.5 -62t-88.5 -17q-118 0 -186 70t-68 192zM1574 1300q0 69 50 116.5t124 47.5 q64 0 104.5 -38.5t40.5 -98.5q0 -68 -49 -116t-119 -48q-69 0 -110 37.5t-41 99.5z" />
<glyph unicode="&#xfb04;" horiz-adv-x="1932" d="M-143 -389q84 84 142.5 224.5t88.5 332.5l94 594h-32q-29 0 -50.5 -2t-38.5 -6l23 151q6 46 25 64t59 18h49l39 240q22 138 109 211t231 73q81 0 126.5 -25t45.5 -69q0 -10 -3.5 -23t-10.5 -32l-47 -109q-22 16 -43 23.5t-41 7.5q-40 0 -65.5 -31.5t-35.5 -93.5l-28 -172 q10 -1 20 -1.5t29 -0.5q27 0 47 2t37 6l-17 -119q-10 -68 -30.5 -90t-67.5 -22h-53l-88 -565q-47 -297 -114 -441.5t-159 -144.5h-241zM523 -389q84 84 142.5 224.5t88.5 332.5l94 594h-32q-29 0 -50.5 -2t-38.5 -6l23 151q6 46 25 64t59 18h49l39 240q22 138 109 211 t231 73q81 0 126.5 -25t45.5 -69q0 -10 -3.5 -23t-10.5 -32l-47 -109q-22 16 -43 23.5t-41 7.5q-40 0 -65.5 -31.5t-35.5 -93.5l-28 -172q10 -1 20 -1.5t29 -0.5q27 0 47 2t37 6l-17 -119q-10 -68 -30.5 -90t-67.5 -22h-53l-88 -565q-47 -297 -114 -441.5t-159 -144.5h-241z M1402 221q0 25 3.5 59.5t14.5 110.5l141 901q6 37 9.5 63t3.5 40q0 15 -2 33t-7 38l320 50l-180 -1133q-6 -36 -9.5 -63.5t-3.5 -45.5q0 -51 24 -76.5t71 -25.5q10 0 25.5 1.5t37.5 4.5l-51 -121q-18 -42 -49.5 -59.5t-91.5 -17.5q-125 0 -190.5 61.5t-65.5 179.5z" />
</font>
</defs>
</svg>
